<?xml version="1.0" encoding="UTF-8"?>
<!DOCTYPE svg PUBLIC "-//W3C//DTD SVG 1.1//EN" "http://www.w3.org/Graphics/SVG/1.1/DTD/svg11.dtd">
<!-- Creator: CorelDRAW 2020 (64-Bit) -->
<svg xmlns="http://www.w3.org/2000/svg" xml:space="preserve" width="272.038mm" height="47.8841mm" version="1.1" style="shape-rendering:geometricPrecision; text-rendering:geometricPrecision; image-rendering:optimizeQuality; fill-rule:evenodd; clip-rule:evenodd"
viewBox="0 0 27202.78 4788.22"
 xmlns:xlink="http://www.w3.org/1999/xlink"
 xmlns:xodm="http://www.corel.com/coreldraw/odm/2003">
 <defs>
  <style type="text/css">
   <![CDATA[
    .fil1 {fill:#373435;fill-rule:nonzero}
    .fil0 {fill:#D10000;fill-rule:nonzero}
   ]]>
  </style>
 </defs>
 <g id="Capa_x0020_1">
  <metadata id="CorelCorpID_0Corel-Layer"/>
  <g id="_2817153704816">
   <path class="fil0" d="M3639.49 3407.87c0,-97.26 -20.42,-250.93 -20.42,-319.02 0,-103.1 7.78,-166.31 7.78,-226.61 0,-123.53 -77.81,-180.91 -218.83,-180.91 -41.83,0 -82.68,3.9 -116.72,6.81 -50.58,4.87 -132.27,-7.78 -174.09,28.21 -29.18,26.26 -36.97,61.28 -36.97,98.24 0,51.55 15.57,119.63 15.57,229.53 0,27.23 -0.98,55.44 -2.92,82.68 0.97,28.2 0,57.38 0,85.59 0,42.79 3.89,85.59 17.51,127.4 19.45,64.2 64.19,76.84 64.19,148.81 0,66.14 -74.89,117.69 -74.89,221.75 -4.87,76.84 4.86,229.54 4.86,323.88 0,29.18 -2.92,59.33 -12.64,86.57 -21.4,64.19 -79.76,106.02 -100.19,171.17 -21.39,67.11 -40.85,155.62 -122.55,155.62 -49.6,0 -100.18,-30.16 -115.74,-78.79 -21.4,-67.11 -39.88,-155.61 -108.94,-155.61 -44.74,0 -88.51,17.51 -128.38,20.42 -68.08,4.87 -160.47,-1.94 -222.72,-1.94 -67.12,0 -171.18,-11.67 -190.63,-24.32 -42.8,-28.2 -52.52,-68.08 -52.52,-111.85 0,-62.25 7.78,-128.38 7.78,-181.88 0,-106.01 -16.54,-210.08 -16.54,-317.07 0,-152.69 11.67,-301.51 11.67,-452.26 0,-48.63 3.89,-123.52 -5.83,-192.57 -10.7,-78.78 -38.91,-150.75 -109.91,-169.23 -28.21,-7.78 -60.31,-10.7 -93.37,-10.7 -44.75,0 -90.46,4.86 -131.3,6.81 -56.42,2.92 -135.19,0.97 -170.2,54.47 -30.16,44.74 -25.29,137.13 -34.05,190.63 -2.91,14.58 -3.89,30.15 -3.89,43.76 0,68.09 23.35,141.03 23.35,204.25 0,55.44 -9.73,110.88 -9.73,165.34 0,67.11 9.73,129.35 9.73,193.54 0,97.27 -8.76,191.61 -4.87,287.9 0.98,35.98 6.81,75.86 6.81,114.77 0,30.15 -3.89,58.36 -15.56,84.62 -49.61,101.15 -140.05,119.63 -236.34,119.63 -132.27,0 -379.32,-33.07 -571.9,-37.93 -77.81,-1.94 -175.06,-9.73 -175.06,-132.27 0,-49.6 14.59,-107.96 14.59,-169.23 0,-77.81 -11.68,-130.32 -11.68,-209.11 0,-53.49 24.32,-139.07 24.32,-241.2 0,-81.7 -14.59,-164.37 -14.59,-245.1 0,-52.52 -3.89,-97.26 -68.08,-109.91 -55.44,-10.7 -145.89,-29.18 -145.89,-105.04 0,-52.53 62.25,-71.98 101.15,-79.76 58.36,-11.67 108.94,-22.37 108.94,-84.62 0,-66.14 -28.21,-119.63 -113.8,-135.19 -70.03,-12.64 -141.99,-18.48 -213,-14.59 -56.41,2.92 -133.24,-0.97 -173.12,45.72 -19.45,22.37 -25.29,50.58 -25.29,80.73 0,69.05 16.54,141.02 16.54,196.46 0,68.09 -4.87,135.19 -4.87,203.27 0,64.2 0.98,129.36 -7.78,192.58 -10.7,91.43 -12.64,175.06 -12.64,270.38 0,66.14 -5.84,131.3 -5.84,198.41 0,73.92 19.46,143.94 19.46,217.86 0,57.39 -10.7,104.08 -10.7,161.45 0,76.84 25.29,155.61 25.29,229.54 0,37.93 -12.65,73.92 -12.65,141.99 0,29.18 4.86,57.39 20.43,79.76 16.53,25.29 44.74,32.1 76.84,32.1 33.07,0 74.89,-7.79 103.1,-7.79 89.48,0 160.47,23.35 248.01,23.35 71,0 237.32,-18.48 308.32,-18.48 138.1,0 215.91,10.7 368.62,10.7 82.67,0 168.26,0.97 250.93,-6.81 70.03,-5.84 132.27,-46.69 201.33,-46.69 45.71,0 85.59,14.59 126.44,30.15 33.07,12.65 65.17,15.57 100.18,18.48 68.09,6.81 139.08,11.68 168.26,11.68 29.18,0 92.4,-3.9 119.64,-3.9 60.3,0 119.63,4.87 182.84,4.87 64.2,0 117.69,-23.35 190.63,-23.35 66.14,0 127.41,20.43 192.58,20.43 52.52,0 99.21,-8.75 147.83,-8.75 25.29,0 51.55,1.94 79.75,6.8 76.84,12.65 153.67,23.35 232.46,23.35 78.78,0 153.66,-19.45 234.39,-19.45 63.22,0 139.08,6.8 190.63,-18.48 59.33,-28.21 66.14,-107 66.14,-163.4 0,-141.99 -21.4,-248.99 -21.4,-399.74 0,-66.14 12.65,-181.87 12.65,-248.01 0,-62.25 -15.57,-123.53 -15.57,-185.76 0,-129.36 33.07,-198.41 33.07,-315.13l0 0zm-3387.58 104.07c0,38.91 -29.18,73.92 -79.76,73.92 -48.63,0 -84.62,-36.96 -84.62,-79.75 0,-36.96 39.88,-61.28 82.68,-61.28 38.9,0 81.7,26.26 81.7,67.11l0 0z"/>
   <path id="1" class="fil0" d="M3640.47 1775.84c0,-83.65 -18.48,-166.31 -20.43,-251.91 -6.81,-251.9 8.76,-496.03 8.76,-750.85 0,-174.09 -111.86,-295.67 -111.86,-379.32 0.97,-49.6 49.61,-70.03 81.7,-111.85 15.57,-19.46 22.37,-45.72 22.37,-71.98 0,-23.34 -11.67,-66.14 -39.87,-101.15 -26.27,-33.07 -66.14,-60.31 -125.47,-60.31 -32.1,0 -64.2,0.98 -95.32,0.98 -35.02,0 -70.03,-3.9 -103.1,-3.9 -46.69,0 -83.65,7.79 -128.38,45.72 -40.85,35.99 -50.58,102.13 -50.58,165.34 0,38.9 2.92,75.86 4.86,105.04 6.81,87.54 27.24,159.51 27.24,248.99 0,93.37 -24.32,184.79 -24.32,277.19 0,114.78 19.45,229.54 19.45,343.34 0,64.19 -8.75,141.02 -57.38,165.34 -36.96,18.48 -92.4,11.67 -132.27,16.53 -50.58,6.81 -109.91,20.43 -166.31,20.43 -44.75,0 -89.49,-6.81 -134.22,-5.84 -44.74,0 -85.59,14.59 -129.35,14.59 -106.99,0 -151.72,-8.75 -258.71,-8.75 -54.47,0 -108.94,10.7 -138.11,10.7 -89.48,0 -139.08,-20.43 -208.13,-20.43 -85.6,0 -127.41,18.48 -195.5,18.48 -81.7,0 -161.44,-30.15 -228.56,-30.15 -33.07,0 -67.11,1.94 -104.07,5.83 -71,8.76 -142,27.24 -213.97,27.24 -60.31,0 -119.64,-16.54 -178.96,-16.54 -72.95,0 -92.4,16.54 -172.15,16.54 -89.48,0 -180.9,-26.26 -269.41,-26.26 -80.73,0 -157.56,19.45 -240.23,21.4 -37.93,0 -99.21,-13.62 -151.72,-13.62 -31.13,0 -58.36,4.86 -76.84,19.45 -21.4,16.54 -27.24,44.74 -27.24,76.84 0,57.39 10.7,128.38 10.7,174.09 0,42.8 -9.72,96.29 -9.72,143.94 0,78.79 58.36,113.8 138.1,113.8 53.5,0 109.91,-12.64 160.48,-12.64 57.38,0 112.82,14.59 170.2,14.59 56.41,0 110.88,-4.86 168.26,-4.86 74.89,0 145.88,19.45 220.78,19.45 90.45,0 177.98,-24.32 270.38,-24.32 102.13,0 201.33,-10.7 303.46,-10.7 87.54,0 134.21,7.78 221.75,7.78 41.82,0 117.69,-4.86 158.53,-4.86 52.52,0 127.41,15.56 169.23,19.45 33.07,1.95 65.17,2.92 97.27,2.92 61.27,0 122.55,-2.92 182.84,-3.89 106.02,-2.92 213,-0.97 318.05,2.92 42.79,1.94 85.59,4.86 127.4,7.78 92.4,5.84 145.89,17.51 214.95,17.51 20.42,0 35.99,-1.95 53.49,-5.84 46.69,-11.67 107.97,-27.23 159.51,-31.12 36.96,-2.92 71.97,-3.89 106.99,-3.89 62.25,0 121.58,14.59 186.73,14.59 131.3,0 188.69,-55.44 188.69,-183.82l0 0zm-2459.72 -106.02c0,29.18 -23.34,62.25 -65.16,62.25 -36.97,0 -64.2,-28.21 -64.2,-58.36 0,-32.1 26.26,-61.28 66.14,-61.28 36.96,0 63.22,24.32 63.22,57.39l0 0zm1390.83 -55.44c0,31.12 -16.53,58.36 -55.44,58.36 -43.77,3.89 -71,-38.91 -71,-78.79 0,-34.04 20.42,-64.19 53.49,-64.19 43.77,0 72.95,43.77 72.95,84.62l0 0z"/>
   <path class="fil1" d="M5203.55 4729.52c130.57,0 174.89,-149.74 174.89,-289.91 0,-98.23 -15.57,-257.56 -15.57,-279.12 0,-110.22 10.78,-185.68 10.78,-301.89 0,-93.44 -3.59,-185.68 -13.18,-276.73 -7.18,-55.11 -13.17,-115.01 -13.17,-172.5 0,-132.97 38.33,-250.37 214.43,-255.16 23.96,-1.2 79.07,10.78 118.6,10.78 43.13,0 40.73,-59.9 70.68,-59.9 11.98,0 15.58,5.99 15.58,14.37 0,15.58 -16.78,33.55 -16.78,47.92 0,13.18 7.19,22.77 19.17,33.55 14.38,13.18 34.74,28.75 51.52,55.11 51.51,80.26 83.86,182.08 118.6,269.54 31.15,81.46 65.89,160.52 95.84,241.98 71.88,189.28 93.44,400.12 185.68,582.21 43.13,86.26 105.42,154.53 123.39,251.57 14.38,79.07 44.33,118.6 113.81,118.6 23.96,0 101.83,-5.99 136.57,-34.74 19.16,-15.57 22.76,-49.12 46.72,-49.12 31.15,0 46.72,61.1 80.26,61.1 32.35,0 65.89,-32.34 89.85,-49.12 28.76,-19.16 107.82,-82.66 140.16,-82.66 45.52,0 43.13,69.49 85.06,69.49 32.34,0 70.68,-112.62 128.17,-112.62 21.57,0 28.76,15.58 28.76,38.34 0,32.35 -13.18,77.87 -13.18,106.62 0,22.76 13.18,38.34 35.94,39.54 15.57,0 32.34,-10.79 50.31,-17.97 20.37,-8.39 81.47,-25.16 94.65,-44.33 7.18,-9.58 9.58,-23.96 9.58,-40.73 -1.2,-64.69 -50.32,-165.32 -68.29,-206.05 -31.14,-70.68 -40.73,-149.74 -82.66,-216.83 -11.98,-20.36 -46.72,-86.25 -65.89,-98.23 -9.58,-7.19 -20.36,-9.59 -32.34,-9.59 -27.56,0 -57.51,13.18 -85.06,13.18 -37.14,0 -61.1,-21.56 -61.1,-44.32 0,-41.94 52.71,-43.13 85.06,-43.13 8.38,0 15.57,0 20.36,0 39.54,-5.99 53.91,-13.18 53.91,-35.94 0,-11.98 -3.59,-28.76 -9.58,-50.32 -11.98,-46.72 -31.15,-92.25 -52.71,-134.17 -41.93,-83.86 -79.07,-178.49 -129.38,-257.56 -16.77,-26.35 -58.7,-52.71 -58.7,-82.66 0,-28.75 11.98,-45.52 11.98,-82.66 0,-3.59 0,-5.99 0,-8.39 -3.59,-73.07 -53.91,-164.11 -83.86,-230 -10.78,-23.96 -15.57,-52.71 -15.57,-73.08 0,-55.11 37.14,-93.44 98.23,-130.57 81.47,-59.9 121,-112.61 177.3,-191.67 33.54,-46.72 40.73,-74.28 40.73,-117.41 0,-38.33 22.76,-51.51 39.53,-62.29 35.94,-21.57 55.11,-26.36 79.07,-59.9 26.36,-37.14 26.36,-81.47 33.55,-124.6 21.56,-128.17 67.08,-252.76 67.08,-382.14 0,-45.52 -4.79,-92.24 -4.79,-137.76 0,-87.45 31.15,-134.16 31.15,-194.06 0,-51.52 -31.15,-59.9 -31.15,-109.02 0,-45.53 28.75,-57.51 28.75,-143.75 0,-47.92 -9.58,-94.64 -20.36,-138.96 -11.98,-45.52 -25.16,-87.45 -25.16,-134.17 0,-35.94 9.58,-63.49 9.58,-83.86 0,-26.35 -15.57,-65.89 -53.91,-65.89 -38.33,1.2 -45.52,109.02 -57.5,132.97 -17.97,32.35 -82.66,99.44 -143.75,99.44 -26.36,0 -51.51,-4.8 -51.51,-33.55 0,-38.34 61.09,-35.94 85.05,-50.32 31.15,-16.77 43.13,-21.56 51.52,-53.91 4.79,-16.77 4.79,-38.33 4.79,-55.1 0,-5.99 0,-11.98 0,-15.58 0,-35.94 26.36,-58.7 88.65,-58.7 35.94,0 43.13,-35.94 43.13,-51.51 0,-31.15 -20.37,-59.9 -51.51,-59.9 -14.38,0 -28.76,4.79 -45.53,4.79 -25.16,0 -58.7,-23.96 -85.06,-31.15 -14.37,-3.59 -33.54,-2.4 -46.72,-7.19 -17.97,-5.99 -23.96,-20.36 -23.96,-28.75 0,-17.97 26.36,-32.35 50.32,-40.73 49.12,-17.97 77.87,-41.93 77.87,-74.28 0,-19.17 -10.78,-43.13 -34.74,-71.88 -21.57,-32.34 -46.73,-62.29 -86.26,-62.29 -28.75,0 -57.5,29.95 -85.06,29.95 -23.96,0 -38.33,-20.37 -38.33,-35.94 0,-27.56 43.12,-55.11 43.12,-83.86 0,-8.39 -2.39,-16.78 -10.78,-25.16 -17.97,-17.97 -50.31,-2.4 -68.28,-17.97 -17.97,-14.38 -9.59,-37.14 -15.58,-56.31 -7.19,-21.56 -21.56,-44.32 -63.49,-44.32 -28.75,0 -53.91,9.58 -82.66,-17.97 -37.14,-34.75 -46.73,-67.09 -111.42,-67.09 -7.19,0 -14.37,0 -20.36,0 -20.37,0 -40.74,-1.2 -61.1,-11.98 -31.15,-15.58 -52.71,-46.72 -87.46,-64.69 -62.29,-29.95 -118.6,-41.93 -182.08,-41.93 -21.57,0 -44.33,1.19 -68.29,3.59 -61.1,7.19 -122.2,9.58 -182.09,9.58 -50.31,0 -100.63,-1.19 -150.93,-3.59 -75.48,-3.59 -147.35,-21.56 -220.43,-21.56 -51.51,0 -97.03,15.57 -162.91,15.57 -26.36,0 -52.72,-2.4 -81.47,-10.78 -19.17,-5.99 -45.52,-20.37 -69.48,-20.37 -45.53,-2.39 -22.76,112.61 -65.89,112.61 -9.59,0 -22.76,-7.18 -40.73,-26.35 -31.15,-33.55 -25.16,-73.08 -75.48,-73.08 -35.94,2.4 -76.67,46.72 -138.96,46.72 -50.31,0 -75.47,-21.56 -131.77,-21.56 -23.96,0 -62.29,10.78 -94.64,10.78 -71.88,0 -178.49,-35.94 -256.36,-35.94 -63.5,0 -111.42,22.76 -111.42,105.42 0,89.85 75.48,111.42 75.48,182.09 0,39.53 -19.17,62.3 -19.17,82.66 -2.4,31.15 49.12,37.14 89.85,39.54 47.92,2.39 69.48,2.39 93.44,28.75 29.95,33.54 39.54,40.73 85.06,64.69 33.55,17.97 55.11,47.92 55.11,69.48 0,14.38 -9.58,25.16 -34.74,25.16 -27.55,0 -50.32,-13.18 -81.47,-13.18 -11.98,0 -31.14,8.39 -31.14,33.55 0,22.76 34.74,46.72 34.74,70.68 0,15.57 -14.38,26.36 -32.35,26.36 -21.56,0 -47.92,-14.38 -70.68,-14.38 -25.16,0 -52.71,23.96 -52.71,59.9 0,17.97 7.19,43.13 7.19,57.5 1.19,32.35 -5.99,61.1 -5.99,88.66 0,13.17 1.19,26.35 5.99,39.53 8.38,26.36 28.75,41.93 28.75,67.09 -1.2,85.06 -159.33,62.29 -159.33,177.29 0,62.3 28.76,109.02 28.76,177.3 0,44.32 -22.77,79.07 -22.77,122.19 0,44.33 3.6,110.22 11.98,152.14 8.39,41.93 16.78,77.87 16.78,118.6 0,37.14 -7.19,61.1 -7.19,86.26 0,39.53 11.98,69.48 11.98,109.02 0,63.49 -14.38,130.57 -14.38,191.67 0,35.94 -3.59,111.41 8.39,135.36 13.18,25.16 65.89,26.36 65.89,51.51 0,23.96 -35.94,29.95 -55.11,45.53 -31.15,26.35 -40.73,58.7 -40.73,122.19 0,159.33 27.55,337.83 27.55,476.79 0,208.44 -29.95,455.22 -29.95,632.52 0,448.04 28.75,492.36 28.75,698.41 0,40.73 -7.18,107.82 -7.18,173.7 0,89.85 23.96,174.9 137.76,174.9 38.33,0 165.31,-16.77 252.77,-16.77 168.9,0 285.11,28.75 396.51,28.75l-1.19 0zm-408.5 -4250.34c-25.16,0 -19.17,-38.34 -34.74,-63.5 -16.78,-23.96 -40.74,-26.35 -68.29,-26.35 -5.99,0 -14.38,0 -19.17,0 -7.19,0 -14.38,0 -21.56,0 -44.33,0 -82.67,-4.79 -82.67,-74.28 0,-45.52 29.95,-115.01 74.28,-115.01 26.36,0 33.54,37.14 49.12,64.7 46.72,82.66 168.91,31.14 168.91,118.6 0,26.35 -31.15,95.84 -65.89,95.84l0 0zm408.5 -164.12c-11.98,-1.2 -23.96,-9.58 -22.77,-25.16 0,-17.97 10.79,-23.96 22.77,-23.96 13.17,0 27.55,9.59 27.55,23.96 0,17.97 -14.38,26.36 -27.55,25.16l0 0zm1213.52 73.08c-14.37,-1.2 -29.95,-11.98 -29.95,-31.15 0,-20.36 13.18,-37.14 27.56,-37.14 14.37,0 31.14,16.78 31.14,38.34 -1.19,20.37 -14.37,29.95 -28.75,29.95l0 0zm-1450.72 149.74c-15.57,1.2 -31.15,-8.39 -31.15,-27.55 0,-17.97 13.18,-27.56 27.56,-27.56 16.77,-1.2 33.54,7.19 33.54,26.36 1.2,19.17 -14.37,28.75 -29.95,28.75l0 0zm-511.53 173.7c26.36,0 26.36,-41.93 37.14,-58.7 25.16,-43.13 116.21,-47.92 118.6,-109.02 1.2,-31.15 -22.76,-40.73 -51.51,-40.73 -32.35,0 -140.16,8.38 -140.16,71.88 0,19.17 4.8,35.94 4.8,61.1 0,9.58 -1.2,23.96 -1.2,37.13 0,19.17 5.99,38.34 32.34,38.34l0 0zm2319.25 -85.06c-21.57,0 -29.95,-7.19 -31.15,-15.57 0,-14.38 25.16,-34.74 44.32,-34.74 17.97,0 25.16,7.18 25.16,15.57 0,15.57 -17.97,34.74 -38.33,34.74l0 0zm259.95 38.34c-19.17,0 -28.75,-11.98 -29.95,-25.16 -1.2,-16.77 13.18,-35.94 39.54,-35.94 17.97,0 25.15,9.58 26.35,21.56 1.2,17.97 -13.18,39.54 -35.94,39.54l0 0zm-499.54 232.4c-11.98,0 -23.96,-5.99 -39.54,-22.76 -13.18,-15.58 -28.75,-45.53 -28.75,-77.87 0,-59.9 101.83,-93.45 137.76,-93.45 52.71,0 88.65,22.77 136.56,44.33 22.76,8.39 153.34,5.99 150.94,49.12 -1.2,22.76 -89.85,65.89 -183.28,65.89 -39.54,0 -59.9,-9.59 -81.47,-9.59 -47.92,0 -45.52,44.33 -92.24,44.33l0 0zm-383.34 37.14c-31.15,0 -55.11,-23.96 -55.11,-55.11 0,-29.95 21.56,-55.11 52.71,-55.11 31.15,0 46.72,25.16 46.72,53.91 0,27.56 -15.57,56.31 -44.32,56.31zm-1340.52 -4.79c-14.37,0 -26.35,-10.79 -26.35,-47.92 0,-34.75 17.97,-52.72 35.94,-52.72 15.57,0 29.95,14.38 29.95,45.53 0,27.55 -21.57,55.11 -39.54,55.11l0 0zm1878.4 37.13c-20.37,0 -27.56,-9.58 -27.56,-19.16 0,-15.58 19.17,-34.75 41.93,-34.75 15.58,0 26.36,8.39 26.36,19.17 0,15.58 -10.78,34.74 -40.73,34.74l0 0zm333.03 89.85c-29.95,0 -43.13,-19.16 -43.13,-39.53 0,-22.76 17.97,-47.92 50.32,-45.52 28.75,2.39 41.93,19.16 41.93,38.33 0,23.96 -15.57,46.72 -49.12,46.72l0 0zm-965.55 1233.9c-65.89,0 -98.23,-86.26 -165.31,-86.26 -56.31,0 -81.47,61.1 -132.97,61.1 -33.54,0 -65.89,-40.73 -113.81,-40.73 -27.55,0 -55.11,2.39 -82.66,2.39 -17.97,0 -34.74,-1.2 -51.52,-4.79 -69.48,-16.77 -171.3,-113.81 -171.3,-162.92 0,-29.95 22.76,-57.5 27.55,-104.22 9.59,-101.83 16.78,-203.65 17.97,-316.27 1.2,-51.51 -11.98,-134.16 -10.78,-189.27 1.2,-86.26 2.4,-168.91 4.79,-225.21 2.4,-65.89 -9.58,-137.77 55.11,-177.3 39.54,-23.96 95.84,-27.55 150.94,-27.55 19.17,0 38.34,1.19 56.31,1.19 92.24,0 184.48,10.79 276.72,19.17 19.17,2.4 37.14,5.99 55.11,5.99 58.7,0 76.67,-53.91 111.42,-53.91 35.94,0 97.04,47.92 112.61,57.51 45.52,31.14 53.91,61.09 86.26,89.85 58.7,51.51 101.83,44.32 101.83,123.39 0,25.16 -10.79,131.77 -10.79,160.52 0,53.91 33.55,98.24 33.55,142.56 0,27.55 -27.56,69.48 -27.56,131.77 0,70.68 13.18,123.39 13.18,191.67 0,98.23 -22.76,188.07 -118.6,252.76 -53.91,35.94 -99.43,77.87 -152.14,115.01 -26.35,20.37 -46.72,33.55 -65.89,33.55l0 0zm-1309.36 -1002.69c-53.91,0 -121,-88.65 -121,-143.75 0,-44.33 25.16,-67.09 40.73,-67.09 19.17,0 41.93,28.75 70.68,65.89 21.57,28.75 32.35,40.73 70.69,41.93 14.37,0 38.33,-9.58 57.5,-9.58 15.57,0 26.36,5.99 26.36,28.75 0,39.53 -91.05,83.86 -144.95,83.86l0 0zm315.06 -98.24c-29.95,0 -49.12,-23.96 -49.12,-45.52 0,-14.38 9.59,-27.56 33.55,-28.75 27.55,-1.2 45.52,27.55 45.52,49.12 0,14.37 -10.78,25.15 -29.95,25.15l0 0zm1509.42 197.66c-14.37,0 -27.55,-8.38 -26.35,-20.36 1.2,-13.18 26.35,-29.95 41.93,-38.34 43.13,-23.96 95.84,-71.88 142.55,-71.88 22.76,0 31.15,10.78 31.15,23.96 0,17.97 -20.37,43.13 -46.72,50.32 -25.16,7.19 -50.32,7.19 -74.28,19.17 -19.17,9.58 -44.33,37.13 -68.29,37.13l0 0zm371.37 -10.78c-19.16,0 -26.35,-7.19 -25.15,-16.77 1.19,-17.97 29.95,-44.33 52.71,-44.33 14.37,0 23.96,7.19 25.16,17.97 1.19,17.97 -16.78,43.13 -52.72,43.13l0 0zm-1836.46 396.52c-65.89,8.39 -86.26,-7.19 -106.62,-69.48 -11.98,-37.14 -43.13,-94.65 -43.13,-143.75 0,-59.9 70.68,-141.36 97.04,-164.12 15.57,-11.98 37.13,-17.97 55.1,-17.97 25.16,0 46.73,9.58 46.73,26.36 0,9.58 -5.99,20.36 -21.57,32.34 -53.91,46.72 -103.03,22.76 -104.22,115.01 -1.2,49.12 21.56,152.14 98.23,152.14 33.55,0 55.11,-14.38 89.85,-14.38 26.36,0 47.92,5.99 47.92,23.96 0,7.19 -3.59,15.57 -11.98,27.55 -16.77,27.56 -115.01,27.56 -147.34,32.35l0 0zm1982.61 -321.05c-16.77,0 -23.96,-9.59 -23.96,-21.57 1.2,-19.17 16.77,-41.93 35.94,-41.93 20.37,0 27.55,10.78 27.55,22.76 0,17.97 -16.77,40.74 -39.53,40.74l0 0zm-81.46 144.94c-32.35,0 -70.69,-22.76 -68.29,-56.3 1.2,-27.56 21.56,-38.34 44.33,-38.34 27.55,0 65.89,20.37 65.89,57.51 0,26.35 -19.17,37.13 -41.93,37.13l0 0zm-1753.81 5.99c-21.56,0 -32.34,-20.36 -31.15,-38.33 0,-15.58 9.59,-29.95 27.56,-29.95 15.57,0 25.16,20.36 23.96,39.53 0,15.58 -5.99,28.75 -20.37,28.75l0 0zm1926.31 1.2c-19.17,0 -39.54,-15.57 -38.34,-35.94 1.2,-22.76 16.77,-32.34 33.55,-33.54 16.77,0 33.54,10.78 33.54,29.95 0,28.75 -14.38,39.53 -28.75,39.53l0 0zm-499.55 264.75c-26.35,0 -34.74,-14.38 -34.74,-32.35 0,-27.55 27.55,-64.69 55.11,-64.69 29.95,0 39.53,20.37 39.53,38.34 0,28.75 -32.34,58.7 -59.9,58.7zm-1914.32 323.45c-45.53,3.59 -80.27,-63.49 -105.43,-88.65 -39.53,-40.73 -56.31,-87.46 -56.31,-116.21 0,-15.57 4.8,-25.16 14.38,-25.16 53.91,0 71.88,103.03 115.01,138.96 15.57,13.18 75.47,34.74 75.47,59.9 0,15.58 -23.96,31.15 -43.12,31.15zm2183.86 -73.08c-31.15,0 -43.13,-16.77 -43.13,-31.15 0,-27.55 45.53,-62.29 85.06,-62.29 25.16,0 35.94,13.18 35.94,29.95 -1.2,26.35 -32.34,63.49 -77.87,63.49zm-1702.29 479.18c-32.34,0 -45.52,-28.75 -44.32,-56.3 0,-28.76 14.37,-56.31 37.13,-56.31 34.75,0 57.51,38.34 57.51,63.49 0,25.16 -15.58,50.32 -50.32,49.12l0 0zm842.17 394.13c-28.76,0 -45.53,-21.57 -45.53,-40.74 0,-15.57 10.78,-49.11 35.94,-47.92 21.57,1.2 29.95,25.16 29.95,46.73 -1.2,21.56 -9.58,41.93 -20.36,41.93zm498.35 267.14c-16.78,0 -32.35,-11.98 -29.95,-35.94 1.19,-23.96 20.36,-56.31 38.33,-56.31 14.38,1.2 28.75,32.35 28.75,57.51 0,17.97 -13.17,34.74 -37.13,34.74l0 0zm86.25 1140.46c-31.15,0 -65.89,-44.33 -65.89,-73.08 0,-14.38 8.39,-25.16 31.15,-23.96 32.35,0 70.68,38.34 70.68,68.29 0,14.37 -9.58,28.75 -35.94,28.75l0 0zm-2059.28 -1.2c-27.56,0 -43.13,-20.37 -43.13,-43.13 0,-20.36 13.18,-39.53 38.33,-39.53 27.56,0 43.13,25.16 43.13,46.72 0,15.57 -8.38,35.94 -38.33,35.94l0 0z"/>
   <path id="1" class="fil1" d="M9522.17 4719.93c81.47,0 146.15,-19.16 191.67,-19.16 105.43,0 219.23,15.57 279.13,15.57 47.92,0 95.84,-5.99 124.59,-27.55 19.17,-14.38 92.25,-104.23 92.25,-155.73 0,-20.37 -11.98,-33.55 -44.33,-33.55 -51.51,0 -76.67,28.75 -86.26,50.32 -11.98,27.55 -13.17,86.25 -50.31,86.25 -14.38,0 -25.16,-7.18 -25.16,-22.76 0,-33.54 34.74,-38.33 41.93,-63.49 3.59,-15.58 0,-27.56 0,-45.53 0,-56.3 37.14,-88.65 76.67,-88.65 37.14,0 82.66,19.17 123.4,40.73 35.94,19.17 81.46,83.86 116.2,83.86 15.58,0 28.75,-15.57 29.95,-51.51 2.4,-33.54 23.96,-46.72 49.12,-46.72 38.34,0 86.26,32.34 86.26,71.88 0,51.51 -75.48,51.51 -75.48,101.83 0,35.94 33.55,77.87 67.09,77.87 39.53,0 49.12,-45.53 77.87,-68.29 22.76,-17.97 52.71,-23.96 77.87,-33.54 33.54,-10.78 61.1,-27.56 61.1,-80.27 0,-15.57 0,-31.15 0,-44.32 0,-75.48 15.57,-140.16 15.57,-191.67 0,-40.74 -17.97,-87.46 -17.97,-129.38 0,-29.95 19.17,-45.52 19.17,-79.07 0,-29.95 -20.37,-41.93 -20.37,-76.67 0,-19.17 20.37,-71.88 20.37,-100.63 0,-59.9 -87.45,-134.17 -155.73,-134.17 -47.92,0 -87.45,28.75 -126.99,28.75 -61.1,0 -67.09,-35.94 -144.95,-35.94 -32.34,0 -65.89,5.99 -98.23,5.99 -67.09,0 -121,-5.99 -180.89,-5.99 -34.74,0 -70.68,-1.19 -104.23,8.39 -58.7,17.97 -74.27,65.89 -110.21,65.89 -19.17,0 -31.15,-16.77 -55.11,-33.54 -38.34,-26.36 -141.36,-44.33 -214.43,-44.33 -103.03,0 -100.64,113.81 -167.71,113.81 -20.37,0 -26.36,-11.98 -27.56,-26.36 0,-13.17 3.6,-29.95 3.6,-41.93 0,-20.36 -16.78,-51.51 -79.07,-51.51 -32.35,0 -68.29,5.99 -97.04,5.99 -14.38,0 -26.36,-1.2 -35.94,-4.79 -69.48,-28.75 -80.27,-129.38 -80.27,-206.05 0,-115.01 10.79,-231.2 10.79,-347.41 0,-35.94 -3.6,-81.46 -3.6,-128.17 0,-56.31 7.19,-113.81 43.13,-153.34 39.53,-44.32 103.03,-53.91 167.71,-53.91 41.93,0 85.06,4.79 119.8,5.99 143.75,5.99 283.92,9.59 426.47,9.59 68.29,0 135.36,0 204.85,-2.4 124.59,-2.4 259.95,-15.57 383.34,-21.56 111.41,-5.99 222.82,-15.58 222.82,-161.72 0,-39.54 -7.19,-81.47 -7.19,-119.81 1.2,-52.71 9.58,-148.54 9.58,-202.45 0,-103.03 -43.13,-158.12 -43.13,-259.95 0,-31.15 15.58,-61.1 15.58,-110.22 0,-41.93 -43.13,-105.42 -134.17,-105.42 -70.68,0 -150.94,25.15 -206.04,28.75 -110.22,5.99 -227.61,-8.39 -335.43,14.37 -40.74,9.59 -50.32,45.53 -86.26,45.53 -25.16,0 -40.73,-16.77 -81.47,-38.34 -64.69,-31.15 -255.16,-34.74 -359.39,-34.74 -86.25,0 -214.43,11.98 -275.53,-35.94 -77.87,-61.1 -52.71,-230.01 -52.71,-306.68 0,-105.42 -16.77,-208.44 -16.77,-312.67 0,-119.8 41.93,-215.63 143.75,-230 22.76,-3.6 125.79,-5.99 126.99,-70.69 1.2,-26.35 -33.55,-49.11 -33.55,-85.05 0,-21.57 13.18,-29.95 31.15,-29.95 19.17,0 41.93,9.58 59.9,19.16 35.94,20.37 46.72,22.77 69.49,22.77 11.98,0 26.35,0 46.72,0 38.33,0 104.22,16.77 104.22,63.49 0,14.38 -7.18,26.36 -7.18,39.53 0,35.94 88.65,33.55 115,33.55 74.28,0 149.75,4.79 203.66,7.19 62.29,2.39 226.41,14.37 306.67,14.37 56.31,0 213.24,-11.98 307.88,-11.98 128.18,0 191.67,-69.48 191.67,-247.97 0,-91.05 -15.57,-184.49 -10.78,-275.53 2.39,-53.91 13.18,-106.63 14.37,-160.53 1.2,-26.35 7.19,-61.09 7.19,-94.64 0,-22.76 -3.59,-44.32 -10.78,-62.29 -22.76,-46.73 -80.27,-51.52 -124.59,-65.89 -51.52,-16.78 -93.45,-32.35 -148.54,-32.35 -63.5,-2.4 -59.9,81.46 -119.8,81.46 -21.57,0 -32.35,-11.98 -32.35,-25.15 0,-9.59 9.58,-15.58 9.58,-31.15 0,-26.36 -65.89,-37.14 -86.25,-38.34 -129.38,-8.38 -299.49,11.98 -428.87,11.98 -73.08,0 -147.34,-4.79 -219.22,-11.98 -55.11,-4.79 -119.8,-20.36 -180.89,-20.36 -33.54,0 -65.89,4.79 -95.84,17.97 -27.55,13.17 -59.9,55.1 -95.84,55.1 -40.73,0 -56.31,-77.87 -117.4,-77.87 -46.73,0 -76.68,50.32 -118.61,50.32 -26.35,0 -27.55,-29.95 -61.09,-29.95 -40.74,0 -40.74,57.5 -83.86,57.5 -61.1,0 -79.07,-73.07 -165.32,-73.07 -69.48,0 -135.36,17.97 -135.36,49.11 0,19.17 34.74,49.12 34.74,70.69 0,20.36 -10.78,34.74 -38.34,34.74 -23.96,0 -33.54,-23.96 -33.54,-45.53 0,-19.16 10.78,-37.13 10.78,-58.7 0,-13.18 -10.78,-17.97 -25.16,-17.97 -17.97,0 -38.33,3.6 -53.91,3.6 -56.3,4.79 -112.61,-2.4 -167.71,-2.4 -105.42,0 -128.17,71.88 -128.17,161.72 0,119.8 5.99,240.79 7.18,362.98 3.6,221.62 -1.19,440.85 10.79,661.27 7.18,125.79 -9.59,253.97 -9.59,378.56 0,73.08 9.59,146.15 9.59,219.22 0,144.95 -28.76,285.12 -28.76,394.13 0,68.28 75.48,94.64 75.48,140.15 0,51.52 -80.27,81.47 -80.27,141.36 0,26.35 19.17,73.08 50.32,73.08 8.38,0 16.77,-1.2 27.55,-1.2 49.12,0 74.28,22.76 74.28,46.72 0,29.95 -15.58,37.14 -33.55,38.34 -19.16,0 -34.74,-8.39 -50.31,-8.39 -41.93,0 -63.5,71.88 -63.5,123.39 0,40.74 5.99,81.47 13.18,106.63 10.78,37.13 23.96,55.1 23.96,87.45 0,40.73 -19.17,125.79 -19.17,209.64 0,58.7 3.6,234.8 3.6,283.92 0,46.72 -4.79,73.07 -4.79,117.4 0,101.83 49.11,152.14 49.11,207.24 0,16.78 -8.38,32.35 -19.16,63.5 -16.78,45.52 -16.78,89.85 -19.17,137.76 -2.4,94.64 -9.59,188.08 -15.58,282.72 -3.59,58.7 -14.37,130.57 -14.37,198.86 0,44.32 4.79,87.45 19.17,123.39 28.75,68.29 93.44,79.07 159.32,79.07 26.36,0 51.51,-1.2 75.47,-2.4 37.14,0 83.87,8.39 124.6,8.39 83.86,0 87.45,-61.1 135.36,-61.1 49.12,0 52.71,67.09 179.69,67.09 25.16,0 51.52,-2.4 75.48,-2.4 129.37,-3.59 259.95,-9.58 390.52,-9.58 83.86,0 183.29,14.37 234.8,14.37l0 0zm-147.34 -4452.79c-35.94,0 -75.48,-22.76 -75.48,-61.1 0,-13.17 10.79,-67.08 56.31,-67.08 35.94,0 69.48,35.94 70.68,80.26 0,32.35 -22.76,47.92 -51.51,47.92l0 0zm1085.35 -17.97c-10.78,-1.2 -20.37,-7.19 -21.57,-20.36 -1.19,-13.18 10.79,-20.37 21.57,-20.37 11.98,-1.2 23.96,5.99 23.96,20.37 0,14.37 -11.98,20.36 -23.96,20.36l0 0zm-1256.66 540.28c-17.97,0 -34.74,-11.98 -34.74,-28.75 -2.39,-53.91 141.36,-164.12 186.88,-164.12 55.11,0 64.69,61.1 121,61.1 40.73,7.19 75.47,-32.35 115.01,-51.51 27.55,-13.18 53.91,-2.4 80.26,-11.98 25.16,-8.39 29.95,-21.57 51.52,-37.14 40.73,-29.95 83.86,-43.13 83.86,-103.03 0,-38.34 -39.54,-92.25 -39.54,-135.36 0,-23.96 21.57,-51.52 43.13,-50.32 20.37,0 35.94,32.35 43.13,56.31 15.57,53.91 31.15,75.47 74.28,112.61 29.95,25.16 55.1,50.31 55.1,80.26 0,26.36 -45.52,83.86 -97.03,83.86 -27.56,0 -43.13,-5.99 -73.08,-5.99 -74.28,0 -88.66,43.13 -136.57,92.25 -20.36,19.17 -39.53,26.36 -59.9,26.36 -31.14,0 -64.69,-16.78 -100.63,-16.78 -26.35,0 -76.67,22.77 -89.85,22.77 -37.14,-7.19 -80.26,-49.12 -100.63,-49.12 -15.57,0 -31.15,7.19 -50.32,27.55 -17.97,19.17 -32.34,91.05 -71.88,91.05l0 0zm939.2 -285.11c-26.36,0 -63.5,-17.97 -63.5,-51.52 0,-26.35 49.12,-32.34 70.69,-51.51 29.95,-29.95 28.75,-99.44 81.46,-99.44 23.96,0 32.35,14.38 32.35,26.36 0,26.36 -38.34,61.1 -45.53,74.28 -27.55,49.11 -10.78,101.83 -75.47,101.83l0 0zm-857.74 5.99c-26.36,0 -52.71,-15.58 -52.71,-50.32 0,-33.54 27.55,-50.32 53.91,-50.32 25.15,0 47.92,14.38 47.92,44.33 0,14.38 3.59,56.31 -49.12,56.31l0 0zm-935.6 58.7c-25.16,0 -43.13,-11.98 -43.13,-40.73 0,-43.13 38.34,-116.21 70.68,-116.21 29.95,0 75.48,32.35 75.48,86.26 0,45.52 -65.89,70.68 -103.03,70.68zm1148.83 -8.39c-39.53,0 -56.3,-22.76 -56.3,-57.5 0,-41.93 47.92,-79.07 82.66,-79.07 20.36,0 37.14,11.98 41.93,44.33 3.59,28.75 -40.73,92.24 -68.29,92.24l0 0zm-858.93 4.79c-53.91,0 -131.77,-22.76 -131.77,-63.49 0,-34.74 55.1,-43.13 81.46,-43.13 38.34,0 111.41,8.39 111.41,65.89 0,33.55 -31.14,40.73 -61.09,40.73l0 0zm426.46 -25.15c-10.78,-1.2 -22.76,-8.39 -22.76,-22.77 0,-14.37 10.78,-21.56 21.57,-21.56 11.98,0 25.15,7.19 25.15,22.76 0,15.58 -11.98,21.57 -23.96,21.57l0 0zm-134.16 67.08c-13.18,0 -43.13,-9.58 -43.13,-44.32 0,-19.17 10.78,-35.94 35.94,-37.14 23.96,-1.2 33.54,16.77 34.74,34.74 1.2,22.76 -10.78,46.72 -27.55,46.72l0 0zm136.56 240.79c-20.37,0 -29.95,-14.37 -31.15,-28.75 0,-15.57 9.59,-31.15 31.15,-31.15 19.17,0 29.95,15.58 28.75,31.15 0,14.38 -9.58,27.55 -28.75,28.75l0 0zm692.41 50.32c-20.36,0 -52.71,-32.35 -52.71,-56.31 0,-8.38 7.19,-21.56 26.36,-21.56 17.97,0 51.51,39.53 51.51,59.9 0,9.58 -7.19,17.97 -25.16,17.97l0 0zm-1005.08 377.36c-22.76,0 -31.15,-19.17 -31.15,-45.52 -1.19,-51.52 25.16,-132.97 25.16,-171.31 0,-33.54 -7.19,-52.71 -7.19,-86.26 0,-26.35 3.6,-47.92 16.78,-47.92 44.32,0 79.06,174.9 79.06,207.25 -2.39,29.95 -35.94,143.75 -82.66,143.75l0 0zm1200.35 1370.46c-10.78,0 -19.17,-7.18 -19.17,-25.15 0,-41.93 80.27,-105.43 113.81,-105.43 15.58,0 23.96,10.78 23.96,32.35 0,31.15 -82.66,98.23 -118.6,98.23l0 0zm-1408.79 488.77c-27.55,1.2 -39.53,-19.17 -39.53,-39.54 -1.2,-23.96 14.37,-50.31 41.93,-50.31 25.15,0 37.13,19.17 38.33,39.53 2.4,23.96 -11.98,50.32 -40.73,50.32zm380.95 180.89c-28.75,-1.2 -64.69,-14.38 -64.69,-34.75 0,-21.56 15.58,-31.14 34.74,-31.14 28.76,-1.2 63.5,17.97 63.5,45.52 0,14.38 -15.58,20.37 -33.55,20.37l0 0zm252.77 522.3c-16.77,-1.19 -33.54,-11.98 -33.54,-38.33 0,-16.77 11.98,-22.76 26.35,-22.76 21.57,0 45.53,14.37 45.53,31.14 0,17.97 -19.17,29.95 -38.34,29.95l0 0zm410.9 62.3c-22.77,0 -49.12,-16.77 -49.12,-47.92 0,-25.16 14.37,-35.94 31.15,-35.94 23.96,-1.2 53.91,20.37 53.91,49.12 0,22.76 -16.78,33.54 -35.94,33.54l0 1.2zm-606.17 52.71c-17.97,0 -34.74,-14.37 -34.74,-43.13 0,-28.75 17.97,-44.32 37.13,-44.32 16.78,0 35.94,11.98 35.94,39.53 0,33.55 -20.36,47.92 -38.33,47.92l0 0zm1580.1 138.96c-37.14,-2.39 -44.32,-35.94 -44.32,-49.12 0,-23.96 14.37,-46.72 40.73,-46.72 23.96,0 44.32,16.77 44.32,40.73 0,22.77 -14.37,56.31 -40.73,55.11l0 0zm-98.23 227.61c-52.72,0 -122.2,-38.33 -122.2,-67.09 0,-3.59 3.59,-13.17 14.38,-13.17 4.79,0 11.98,0 19.16,2.39 16.78,2.4 37.14,19.17 56.31,19.17 8.39,0 17.97,-2.4 27.55,-2.4 17.97,0 39.54,17.97 39.54,35.94 -1.2,13.18 -11.98,25.16 -34.74,25.16l0 0zm-1925.11 170.11c-28.75,0 -58.7,-16.77 -58.7,-49.12 0,-28.75 19.16,-53.91 52.71,-53.91 32.34,0 56.3,21.56 56.3,55.11 0,26.35 -22.76,47.92 -50.31,47.92zm1334.52 61.1c-23.96,0 -34.74,-13.18 -34.74,-27.56 -1.2,-19.17 16.77,-41.93 44.33,-41.93 21.56,0 31.14,13.18 29.95,28.75 0,19.17 -15.58,40.74 -39.54,40.74l0 0zm464.81 98.23c11.98,0 20.36,-5.99 20.36,-19.17 0,-38.33 -64.69,-80.26 -95.84,-80.26 -11.98,0 -19.17,5.99 -19.17,21.56 1.2,20.37 62.3,77.87 94.65,77.87z"/>
   <path id="2" class="fil1" d="M11641.34 4766.66c29.95,0 73.08,-3.6 95.84,-4.8 123.4,-7.18 246.78,-25.15 366.58,-25.15 14.38,0 28.76,-3.6 38.34,-16.78 15.57,-20.36 8.39,-68.28 34.74,-68.28 38.34,0 49.12,89.85 132.97,89.85 16.77,0 51.51,-1.2 62.3,-2.4 92.24,-8.38 100.63,-53.91 116.2,-132.97 17.97,-88.65 28.75,-165.31 28.75,-253.96 0,-93.45 -33.54,-104.23 -33.54,-176.1 0,-51.51 41.93,-70.68 41.93,-152.13 0,-65.9 -14.38,-140.16 -19.17,-195.27 -7.19,-100.63 -11.98,-239.59 -11.98,-340.22 -1.2,-100.63 0,-200.06 -8.38,-299.49 -2.4,-25.16 -3.6,-50.32 -3.6,-75.48 0,-56.3 10.78,-109.01 63.5,-147.34 56.3,-41.93 153.33,-56.31 226.41,-56.31 55.11,0 105.42,16.78 161.72,16.78 41.93,0 83.86,-9.59 125.79,-9.59 83.86,0 265.95,8.39 398.91,8.39 82.67,0 165.32,-7.19 247.98,-7.19 88.65,0 204.85,15.57 276.73,-20.37 43.13,-22.76 52.71,-64.69 52.71,-110.21 0,-33.55 -4.79,-68.29 -4.79,-99.44 5.99,-79.06 17.97,-190.47 17.97,-269.54 0,-113.81 -7.19,-195.26 -13.18,-310.27 -4.79,-123.39 -93.44,-150.94 -196.46,-150.94 -99.44,0 -213.24,21.57 -279.13,21.57 -196.46,0 -346.21,-45.53 -543.87,-45.53 -93.44,0 -118.6,81.47 -202.45,81.47 -58.7,0 -132.97,-44.33 -185.68,-51.52 -99.44,-13.18 -103.03,-68.28 -154.53,-141.35 -26.36,-37.14 -51.52,-56.31 -103.03,-56.31 -11.98,0 -26.36,1.2 -40.73,0 -34.75,0 -68.29,-5.99 -68.29,-41.93 0,-53.91 148.54,-53.91 176.1,-55.11 40.73,-2.39 58.7,-27.55 58.7,-55.1 0,-29.95 -22.76,-59.9 -64.69,-59.9 -52.72,0 -95.84,51.51 -134.17,51.51 -50.32,0 -95.84,-105.42 -95.84,-147.34 0,-16.78 7.19,-22.77 17.97,-22.77 26.36,0 71.88,29.95 88.65,37.14 22.76,10.78 53.91,28.75 81.47,28.75 13.17,0 46.72,-11.98 46.72,-46.72 0,-21.56 -11.98,-43.13 -33.55,-43.13 -17.97,0 -38.33,13.18 -56.3,13.18 -13.18,0 -33.55,-9.58 -33.55,-33.54 0,-28.75 14.38,-41.93 31.15,-56.31 22.76,-19.17 58.7,-17.97 92.25,-19.17 41.93,-2.39 80.26,-20.36 80.26,-76.67 0,-45.52 -23.96,-77.87 -23.96,-113.81 0,-20.37 8.39,-41.93 33.55,-68.29 52.71,-52.71 123.39,-68.28 201.25,-68.28 121,0 256.36,29.95 354.6,32.34 130.57,3.6 513.92,5.99 545.07,5.99 83.86,0 299.49,-13.17 323.45,-13.17 162.92,0 216.83,-74.28 216.83,-131.77 0,-50.32 9.58,-192.87 8.39,-233.6 -2.4,-88.66 -31.15,-171.31 -31.15,-259.96 0,-32.35 4.79,-86.26 4.79,-138.96 0,-58.7 -5.99,-117.4 -31.15,-149.74 -40.73,-52.71 -160.52,-47.92 -221.62,-55.11 -49.12,-5.99 -98.23,-8.38 -147.34,-8.38 -152.14,0 -303.09,21.56 -456.42,21.56 -95.84,0 -191.67,-17.97 -288.71,-17.97 -110.22,2.4 -218.03,3.6 -325.85,3.6 -86.25,0 -171.3,-10.79 -257.56,-10.79 -103.02,0 -221.62,38.34 -328.24,38.34 -123.39,1.2 -237.19,-27.55 -361.79,-27.55 -56.3,0 -118.6,3.59 -147.34,37.13 -65.89,75.48 -44.33,190.48 -52.71,279.13 -4.79,44.32 -25.16,106.62 -25.16,162.92 0,59.9 39.53,106.62 81.46,106.62 49.12,0 55.11,-33.55 109.02,-33.55 16.77,0 31.15,10.79 61.1,16.78 41.93,13.17 136.56,9.58 136.56,37.13 0,20.37 -50.31,49.12 -124.59,49.12 -21.56,0 -45.52,-1.2 -67.09,-1.2 -88.65,0 -162.92,56.31 -162.92,168.91 0,34.74 4.8,68.29 9.59,97.04 5.99,27.55 7.19,53.91 7.19,81.46 0,38.34 -3.6,82.67 -3.6,121 0,52.72 13.18,153.34 88.65,153.34 31.15,0 61.1,-10.78 98.24,-13.18 34.74,-2.4 64.69,-5.99 94.64,-5.99 41.93,0 71.88,8.39 100.64,8.39 46.72,0 88.65,-21.57 119.8,-21.57 17.97,0 32.34,5.99 32.34,33.55 0,27.55 -29.95,50.31 -52.71,58.7 -37.14,17.97 -80.27,10.78 -118.6,22.76 -43.13,11.98 -77.87,32.35 -122.2,37.14 -45.52,4.79 -79.07,3.59 -122.2,20.36 -37.13,13.18 -53.91,4.8 -87.45,10.79 -29.95,4.79 -43.13,35.94 -43.13,71.88 0,21.56 13.18,119.8 62.3,119.8 9.58,0 22.76,-2.4 44.32,-2.4 47.92,0 73.08,38.34 73.08,58.7 0,16.77 -16.77,37.14 -46.72,37.14 -19.17,0 -40.73,-9.58 -61.1,-9.58 -39.53,1.19 -64.69,39.53 -64.69,68.28 5.99,61.1 71.88,67.09 71.88,95.84 0,26.36 -37.14,46.72 -52.71,62.3 -33.55,34.74 -41.93,73.08 -41.93,113.81 0,27.55 3.59,56.3 7.19,87.45 7.18,82.66 14.37,158.13 28.75,239.59 5.99,27.56 20.36,68.29 20.36,97.04 0,27.55 -11.98,47.92 -11.98,77.87 0,55.11 41.93,87.46 94.65,86.26 8.38,0 15.57,-1.2 22.76,-1.2 5.99,0 11.98,1.2 17.97,1.2 37.14,1.2 73.08,17.97 111.41,32.34 29.95,10.79 83.86,19.17 83.86,44.33 0,4.79 -5.99,9.58 -15.57,9.58 -28.75,-1.19 -92.25,-21.56 -161.72,-21.56 -61.1,0 -122.2,10.78 -142.55,50.32 -20.37,37.13 -23.96,85.05 -23.96,131.77 0,25.15 0,50.31 0,73.07 0,89.85 -19.17,170.11 -25.16,258.76 -4.79,64.69 -5.99,130.57 -5.99,196.46 0,129.38 4.79,298.3 4.79,426.47 0,103.03 -2.4,204.85 -2.4,307.88 0,68.29 2.4,196.46 11.98,293.5 3.6,46.72 13.18,88.65 13.18,134.17 0,33.54 -7.19,40.73 -7.19,77.87 0,37.13 20.37,77.87 95.84,77.87l0 0zm601.38 -4191.65c-26.35,0 -49.12,-31.15 -49.12,-55.11 0,-15.57 9.59,-28.75 31.15,-28.75 27.56,0 53.91,28.75 53.91,53.91 0,14.37 -9.58,29.95 -35.94,29.95l0 0zm-194.06 71.88c-14.38,0 -27.56,-13.18 -27.56,-44.33 0,-26.35 14.38,-39.53 28.75,-39.53 14.38,0 28.76,13.18 28.76,40.73 0,27.55 -15.58,43.13 -29.95,43.13l0 0zm-291.11 255.16c-58.7,0 -95.84,-41.93 -95.84,-77.87 0,-26.35 20.37,-49.12 65.89,-49.12 53.91,0 112.61,16.78 112.61,67.09 0,40.73 -46.72,59.9 -82.66,59.9zm79.07 212.04c-8.39,0 -26.36,-7.19 -26.36,-31.15 0,-16.77 14.38,-35.94 25.16,-53.91 29.95,-56.31 46.72,-101.83 94.64,-101.83 38.34,0 88.66,16.77 88.66,57.5 0,39.54 -63.5,58.71 -81.47,68.29 -22.76,14.38 -39.53,41.93 -63.49,51.51 -10.78,5.99 -25.16,10.79 -37.14,9.59l0 0zm545.07 10.78c-26.36,2.4 -49.12,-19.17 -49.12,-49.12 0,-21.56 5.99,-34.74 5.99,-50.31 0,-25.16 -21.56,-47.92 -21.56,-59.9 0,-13.18 9.58,-16.78 15.57,-16.78 17.97,0 44.33,37.14 53.91,47.92 20.37,21.57 46.72,45.53 46.72,73.08 0,26.36 -23.96,53.91 -51.51,55.11l0 0zm-704.4 86.26c-23.96,0 -37.13,-22.76 -37.13,-43.13 0,-17.97 8.38,-34.74 29.95,-34.74 23.96,0 35.94,19.17 37.13,38.33 1.2,20.37 -9.58,39.54 -29.95,39.54l0 0zm59.9 378.56c-17.97,0 -25.15,-9.59 -25.15,-20.37 1.19,-15.57 14.37,-32.35 32.34,-32.35 22.76,0 32.35,8.39 32.35,17.97 0,16.78 -17.97,34.75 -39.54,34.75l0 0zm29.95 359.39c-22.76,0 -40.73,-10.79 -40.73,-32.35 0,-7.19 2.4,-16.77 8.39,-27.55 8.38,-17.97 26.35,-28.76 34.74,-47.92 7.19,-15.58 -1.2,-41.93 14.38,-53.91 8.38,-7.19 16.77,-10.79 25.16,-10.79 32.34,0 62.29,39.54 62.29,70.69 0,64.69 -59.9,101.83 -104.23,101.83l0 0zm-23.96 328.24c-16.77,0 -31.14,-9.59 -29.95,-31.15 1.2,-25.16 19.17,-37.14 38.34,-38.34 16.77,-1.19 34.74,10.79 34.74,33.55 0,22.76 -23.96,35.94 -43.13,35.94zm74.28 281.52c-35.94,-1.2 -61.1,-26.36 -61.1,-53.91 0,-33.55 17.97,-47.92 45.53,-47.92 52.71,0 65.89,27.55 65.89,56.3 0,21.57 -15.58,47.92 -50.32,45.53l0 0zm300.69 53.91c-17.97,0 -25.16,-10.78 -25.16,-21.56 0,-17.98 15.58,-40.74 35.94,-40.74 19.17,0 27.56,10.78 26.36,22.76 0,17.98 -15.58,39.54 -37.14,39.54l0 0zm-130.57 11.98c-15.58,1.2 -22.76,-8.39 -22.76,-19.17 -1.2,-15.57 9.58,-33.54 25.15,-33.54 14.38,0 22.77,11.98 22.77,25.16 1.19,13.17 -5.99,26.35 -25.16,27.55zm651.68 150.94c-63.49,-2.4 -25.16,-88.65 22.76,-88.65 57.51,0 17.97,89.85 -22.76,88.65zm-921.22 100.63c-29.95,0 -56.31,-21.56 -56.31,-46.72 0,-17.97 13.18,-33.55 39.53,-33.55 23.96,0 57.51,13.18 57.51,40.74 0,16.77 -11.98,39.53 -40.73,39.53l0 0zm153.33 128.18c-34.74,0 -86.26,-10.79 -86.26,-57.51 0,-62.29 118.61,-123.39 174.9,-123.39 40.74,0 53.91,22.76 53.91,37.14 0,20.36 -25.15,44.32 -46.72,70.68 -35.94,45.52 -56.3,73.08 -95.84,73.08l0 0zm442.04 55.1c-29.95,-1.19 -61.09,-25.15 -61.09,-49.11 0,-11.98 9.58,-22.77 32.34,-22.77 22.76,0 61.1,15.58 61.1,47.92 0,11.98 -8.39,22.77 -32.35,23.96zm-358.19 43.13c-14.37,-1.2 -27.55,-10.78 -27.55,-26.35 0,-15.58 11.98,-21.57 23.96,-21.57 14.37,0 27.55,8.39 28.75,23.96 0,16.77 -11.98,23.96 -25.16,23.96l0 0zm86.26 1116.5c-21.57,0 -41.93,-15.57 -41.93,-45.52 0,-34.75 29.95,-68.29 56.3,-68.29 17.97,0 40.74,16.77 40.74,63.49 0,33.55 -31.15,51.52 -55.11,50.32l0 0z"/>
   <path id="3" class="fil1" d="M16610.46 4788.22c79.07,0 137.76,-34.74 192.87,-50.32 99.44,-29.95 203.65,-37.13 304.28,-67.08 56.31,-16.78 99.44,-56.31 152.14,-81.47 41.93,-20.36 111.41,-29.95 144.95,-64.69 23.96,-23.96 43.13,-79.07 43.13,-107.82 0,-37.14 -22.77,-31.15 -52.72,-59.9 -38.33,-34.74 -3.59,-116.21 -73.07,-116.21 -49.12,0 -41.93,61.1 -46.73,93.45 -5.99,39.53 -20.36,100.63 -73.07,100.63 -32.35,0 -25.16,-33.54 -39.54,-64.69 -25.16,-52.71 -109.02,-55.11 -109.02,-117.41 0,-39.53 19.17,-57.5 25.16,-82.66 8.39,-28.75 34.74,-126.99 57.51,-126.99 8.38,0 19.16,14.38 22.76,27.56 7.19,32.34 19.17,62.29 40.73,62.29 21.56,0 47.92,-32.34 49.12,-62.29 0,-25.16 -8.39,-51.52 -8.39,-76.68 0,-31.14 19.17,-62.29 50.32,-62.29 38.33,0 75.47,37.14 103.03,37.14 10.78,0 28.75,-5.99 29.95,-26.36 1.19,-41.93 -50.32,-68.29 -47.92,-115.01 1.19,-20.36 28.75,-68.28 28.75,-94.64 0,-11.98 -4.79,-19.17 -20.37,-19.17 -34.74,0 -76.67,88.65 -105.42,88.65 -9.59,0 -23.96,-9.58 -23.96,-32.34 0,-53.91 52.71,-86.26 83.86,-110.22 28.75,-21.56 35.94,-28.75 35.94,-41.93 0,-13.18 -8.39,-35.94 -8.39,-59.9 0,-31.15 21.57,-45.52 53.91,-45.52 52.71,1.2 106.62,23.96 160.52,23.96 49.12,0 94.65,-26.36 142.56,-26.36 37.13,0 70.68,10.78 70.68,45.53 0,38.33 -79.07,111.41 -105.43,131.77 -29.95,23.96 -52.71,33.54 -77.87,33.54 -17.97,0 -38.33,-4.79 -63.49,-11.98 -34.74,-10.78 -74.28,-10.78 -74.28,9.58 0,7.19 3.6,17.97 19.17,31.15 31.15,27.56 62.3,20.37 92.25,61.1 28.75,39.53 35.94,86.26 55.11,130.57 17.97,40.73 33.54,56.31 56.3,56.31 17.97,0 40.73,-8.39 69.49,-22.76 63.49,-28.76 57.5,-45.53 68.28,-111.42 10.78,-56.3 43.13,-111.41 43.13,-172.5 0,-50.32 -25.16,-95.84 -25.16,-147.34 0,-38.34 10.78,-70.69 10.78,-136.57 0,-67.08 -3.59,-246.77 -3.59,-325.84 0,-44.33 -13.18,-100.63 -13.18,-143.75 0,-76.67 26.36,-113.81 31.15,-183.29 5.99,-106.62 1.2,-228.81 1.2,-354.6 0,-77.87 -29.95,-110.21 -27.56,-137.76 2.4,-39.53 39.54,-63.49 39.54,-131.77 0,-76.67 -45.53,-81.46 -45.53,-135.36 0,-55.11 43.13,-80.27 43.13,-215.63 0,-73.08 -8.38,-149.74 -8.38,-216.83 -3.6,-247.97 -5.99,-494.75 -9.59,-741.53 -1.2,-62.3 -1.2,-125.79 -1.2,-188.08 0,-37.14 13.18,-77.87 13.18,-116.2 0,-43.13 -32.34,-83.86 -32.34,-122.2 0,-37.14 20.36,-68.29 20.36,-116.21 0,-35.94 -15.57,-136.56 -59.9,-167.71 -16.77,-11.98 -37.14,-14.37 -58.7,-14.37 -26.36,0 -52.71,3.59 -74.28,4.79 -67.08,4.79 -135.36,-13.18 -203.65,-11.98 -58.7,1.2 -117.4,20.37 -176.09,21.56 -44.33,0 -122.2,-10.78 -195.27,-10.78 -97.03,0 -166.51,68.29 -174.89,149.74 -7.19,62.3 -22.77,121 -21.57,184.48 1.2,113.81 25.16,225.22 25.16,339.03 0,87.45 -19.17,269.54 -19.17,404.9 0,130.58 -20.36,303.09 -20.36,388.14 0,91.04 91.04,105.42 91.04,154.53 0,49.12 -77.87,29.95 -77.87,132.97 0,17.97 2.4,35.94 3.6,52.71 1.2,62.29 3.59,124.59 3.59,185.68 0,51.51 -2.39,79.07 -2.39,128.17 0,46.73 37.13,61.1 79.06,76.68 22.77,8.38 41.93,26.35 41.93,50.31 0,41.93 -71.88,33.55 -95.84,69.49 -7.18,11.98 -10.78,33.54 -10.78,56.3 0,38.34 7.19,82.66 10.78,106.63 3.6,27.55 19.17,58.7 19.17,87.45 0,37.14 -14.37,43.13 -29.95,81.46 -20.36,50.32 -29.95,110.22 -29.95,168.91 0,46.72 9.59,97.04 9.59,144.95 0,137.76 -2.4,220.42 -2.4,281.52 0,51.51 0,81.46 0,136.56 0,88.65 -8.39,214.43 -61.1,273.14 -35.94,38.33 -88.65,49.11 -143.75,49.11 -16.77,0 -288.71,-28.75 -352.2,-28.75 -50.32,0 -88.65,65.89 -135.37,65.89 -38.33,0 -38.33,-26.35 -81.46,-49.12 -33.54,-17.97 -76.67,-11.98 -115.01,-16.77 -138.96,-20.36 -166.51,-109.02 -166.51,-263.55 0,-22.76 -1.2,-44.32 -5.99,-69.48 -4.79,-19.17 -13.18,-43.13 -13.18,-59.9 0,-32.35 11.98,-57.51 14.38,-93.45 3.59,-67.08 2.39,-132.96 2.39,-198.85 0,-56.31 0,-113.81 4.8,-170.11 5.99,-62.3 16.77,-125.79 16.77,-189.27 0,-46.73 -7.19,-92.25 -7.19,-137.76 0,-67.09 5.99,-88.66 5.99,-134.17 0,-71.88 -11.98,-173.7 -11.98,-249.18 0,-119.8 15.57,-214.43 15.57,-392.92 0,-250.37 -13.17,-432.46 -19.16,-682.83 -2.4,-92.25 -23.96,-142.55 -23.96,-180.89 0,-52.71 20.36,-79.07 20.36,-143.75 0,-37.14 -8.38,-76.67 -8.38,-112.61 0,-41.93 0,-116.21 4.79,-173.7 3.59,-55.11 7.19,-106.62 7.19,-161.72 0,-55.11 7.18,-104.23 7.18,-147.35 0,-142.55 -98.23,-166.51 -239.59,-166.51 -70.68,0 -140.15,11.98 -212.03,11.98 -55.11,0 -109.02,-11.98 -164.12,-11.98 -58.7,0 -94.64,20.37 -153.33,21.57 -23.96,0 -55.11,-5.99 -83.86,-5.99 -93.45,0 -122.2,89.85 -122.2,152.13 0,69.49 11.98,161.72 11.98,208.44 0,55.11 -5.99,186.88 -5.99,293.5 0,95.84 16.77,237.2 16.77,333.04 0,164.12 -15.57,309.07 -15.57,473.19 0,112.61 3.59,225.21 5.99,339.02 2.39,111.42 5.99,184.49 5.99,295.9 0,64.69 -8.39,141.35 -8.39,191.67 0,75.47 29.95,100.63 29.95,162.92 2.4,86.26 -31.15,262.35 -34.74,310.27 -10.78,126.99 -8.39,256.36 -8.39,384.54 0,64.69 -1.19,230.01 28.76,328.24 13.17,41.93 15.57,52.71 15.57,110.22 0,81.46 69.48,75.47 69.48,135.36 0,52.71 -31.14,91.05 -29.95,135.37 3.6,52.71 28.76,101.83 50.32,148.54 16.77,38.34 28.75,101.83 80.27,101.83 34.74,0 61.09,-39.53 95.84,-39.53 33.54,0 53.91,50.31 53.91,93.44 0,21.56 -2.4,47.92 -5.99,63.49 -5.99,17.97 -35.94,37.14 -35.94,67.09 0,87.46 156.93,180.89 218.02,221.62 26.36,19.17 79.07,41.93 106.63,41.93 31.14,0 44.32,-33.54 65.89,-50.31 11.98,-8.39 31.14,-16.78 40.73,-27.56 21.56,-25.16 13.18,-113.81 55.11,-113.81 15.57,0 38.33,10.78 38.33,31.15 0,40.73 -34.74,52.71 -34.74,94.64 0,37.14 34.74,37.14 74.28,62.3 44.32,27.55 32.34,55.11 57.5,94.64 25.16,38.34 123.39,52.71 202.45,52.71 144.95,0 285.12,16.77 428.87,21.57 52.71,2.39 106.62,9.58 158.12,9.58l0 0zm-1146.43 -3920.91c-53.91,0 -97.04,-17.97 -97.04,-53.91 0,-27.55 37.14,-44.33 80.26,-44.33 50.32,0 94.65,32.35 94.65,57.51 0,17.97 -21.57,40.73 -77.87,40.73l0 0zm-112.62 735.54c-19.16,1.2 -37.13,-19.16 -37.13,-67.08 0,-32.35 11.98,-45.53 27.55,-45.53 19.17,1.2 43.13,26.36 44.33,63.5 0,29.95 -16.78,49.11 -34.75,49.11zm225.22 153.34c-32.35,0 -57.51,-29.95 -87.46,-61.1 -16.77,-16.77 -23.96,-29.95 -22.76,-39.53 1.2,-19.17 28.75,-23.96 69.49,-26.36 37.13,-1.2 67.08,-9.58 104.22,-9.58 23.96,0 56.31,2.39 56.31,26.35 0,35.94 -77.87,110.22 -119.8,110.22l0 0zm-524.71 218.02c-28.75,0 -47.92,-13.17 -47.92,-28.75 0,-19.17 22.76,-40.73 51.52,-40.73 16.77,0 44.32,9.58 44.32,28.75 0,19.17 -21.56,40.73 -47.92,40.73zm2352.79 317.46c-27.56,0 -38.34,-13.17 -39.54,-32.34 0,-41.93 50.32,-106.62 88.66,-106.62 20.36,0 28.75,10.78 29.95,27.55 1.19,40.73 -45.53,111.41 -79.07,111.41l0 0zm-198.86 -11.98c-20.37,1.2 -45.52,-14.37 -45.52,-40.73 0,-22.76 13.17,-32.34 28.75,-32.34 21.56,-1.2 46.72,14.37 46.72,40.73 1.2,21.56 -13.18,32.34 -29.95,32.34l0 0zm391.73 53.91c-25.16,0 -49.12,-33.54 -49.12,-57.5 0,-20.37 15.57,-25.16 28.75,-25.16 27.55,0 55.11,28.75 55.11,53.91 0,15.58 -9.59,28.75 -34.74,28.75l0 0zm-2072.47 812.22c-28.75,0 -56.3,-15.57 -56.3,-53.91 0,-34.74 33.54,-55.11 64.69,-55.11 33.54,0 57.5,21.57 57.5,52.71 0,35.94 -34.74,56.31 -65.89,56.31l0 0zm1870.01 160.52c-17.97,0 -33.54,-4.79 -33.54,-23.96 0,-28.75 68.29,-63.49 105.42,-63.49 27.56,0 40.74,11.98 40.74,38.33 0,25.16 -73.08,49.12 -112.62,49.12l0 0zm293.5 64.69c-22.76,1.2 -32.34,-11.98 -33.54,-27.55 0,-26.36 23.96,-62.3 59.9,-62.3 20.37,0 28.75,13.18 28.75,29.95 1.2,26.36 -20.36,59.9 -55.11,59.9l0 0zm-2367.16 258.76c-44.32,0 -160.52,-110.21 -160.52,-152.13 0,-11.98 7.19,-27.56 33.55,-27.56 55.1,0 159.32,104.23 159.32,153.34 0,16.77 -14.38,26.35 -32.35,26.35l0 0zm270.74 208.44c-23.96,0 -35.94,-23.96 -35.94,-41.93 0,-17.97 3.6,-43.12 -7.19,-70.68 -11.98,-26.35 -43.12,-43.13 -43.12,-77.87 0,-27.55 10.78,-40.73 23.96,-41.93 13.17,0 28.75,10.78 40.73,31.15 17.97,31.15 64.69,117.4 64.69,154.53 0,26.36 -17.97,46.72 -43.13,46.72zm1586.1 45.53c-39.54,0 -88.66,-49.12 -88.66,-89.85 0,-21.57 9.59,-50.32 32.35,-50.32 34.74,0 83.86,61.1 83.86,100.63 1.2,27.56 -10.78,39.54 -27.55,39.54l0 0zm-2065.28 -47.92c-20.37,0 -28.75,-15.58 -28.75,-32.35 0,-15.57 14.37,-41.93 39.53,-41.93 21.57,0 32.35,11.98 32.35,27.56 0,19.16 -16.77,46.72 -43.13,46.72l0 0zm2386.33 67.09c16.77,0 35.94,-14.38 35.94,-40.74 0,-21.56 -19.17,-38.33 -35.94,-38.33 -14.38,0 -28.75,14.37 -28.75,46.72 0,21.56 14.37,32.35 28.75,32.35zm-460.01 43.12c-19.17,1.2 -43.13,-16.77 -43.13,-45.52 0,-16.77 9.58,-26.36 21.56,-26.36 19.17,0 43.13,16.78 43.13,43.13 1.2,19.17 -9.58,28.75 -21.56,28.75l0 0zm-1938.29 115.01c-19.17,0 -35.94,-13.17 -35.94,-46.72 -1.2,-52.71 31.15,-89.85 62.3,-89.85 26.35,0 50.31,16.77 50.31,55.11 0,45.52 -43.13,81.46 -76.67,81.46l0 0zm1213.53 -38.33c-32.35,0 -45.53,-20.37 -45.53,-37.14 0,-21.57 22.76,-46.72 53.91,-46.72 26.36,0 46.72,16.77 47.92,35.94 0,20.36 -21.56,47.92 -56.3,47.92l0 0zm1241.08 64.69c61.09,0 15.57,-87.46 -31.15,-81.47 -65.89,8.39 -14.38,81.47 31.15,81.47zm-219.23 44.33c19.17,0 33.55,-16.78 33.55,-31.15 0,-10.78 -7.19,-19.17 -26.36,-19.17 -20.37,0 -38.34,15.57 -38.34,29.95 0,10.78 8.39,20.37 31.15,20.37l0 0zm-1831.67 31.14c-26.36,0 -37.14,-15.57 -37.14,-33.54 0,-21.56 17.97,-46.72 44.33,-47.92 28.75,0 40.73,16.77 40.73,34.74 -1.2,21.57 -20.37,46.72 -47.92,46.72l0 0zm2206.63 19.17c16.77,0 31.14,-11.98 31.14,-41.93 0,-26.35 -21.56,-49.12 -44.32,-49.12 -16.77,0 -32.35,10.79 -32.35,37.14 -1.2,32.35 23.96,53.91 45.53,53.91zm-1595.68 -11.98c-11.98,0 -21.57,-7.19 -21.57,-27.55 0,-21.57 19.17,-34.74 35.94,-34.74 14.38,0 27.56,7.18 27.56,23.96 0,19.16 -22.76,38.33 -41.93,38.33l0 0zm1376.45 83.86c44.33,1.2 63.5,-25.16 63.5,-50.31 0,-23.96 -16.78,-47.92 -46.73,-47.92 -43.12,0 -65.89,33.54 -65.89,55.1 0,21.57 21.57,43.13 49.12,43.13zm-305.48 28.75c20.37,-1.19 45.53,-22.76 46.72,-46.72 0,-25.16 -13.17,-37.14 -28.75,-37.14 -20.36,0 -43.13,19.17 -43.13,55.11 0,21.57 11.98,29.95 25.16,28.75l0 0zm402.51 59.9c27.55,0 68.29,-34.74 68.29,-70.68 0,-15.57 -13.18,-44.32 -40.74,-44.32 -20.36,0 -52.71,17.97 -52.71,82.66 0,23.96 10.78,32.34 25.16,32.34l0 0zm-1399.21 121c-27.55,0 -77.87,-15.57 -89.85,-29.95 -21.56,-22.76 -9.58,-51.51 -9.58,-80.26 0,-20.37 -11.98,-41.93 -11.98,-65.89 0,-17.97 26.36,-46.73 63.49,-46.73 23.96,0 79.07,5.99 79.07,41.93 0,17.97 -33.54,19.17 -33.54,51.52 0,32.34 35.94,73.08 35.94,101.83 0,13.18 -8.39,27.55 -33.55,27.55l0 0zm118.61 -112.61c-21.57,-1.2 -34.75,-17.97 -34.75,-32.35 0,-8.38 5.99,-16.77 19.17,-16.77 21.57,0 40.73,22.76 40.73,35.94 0,8.39 -7.18,14.38 -25.15,13.18l0 0zm-844.56 85.06c-53.91,0 -92.25,-50.32 -92.25,-74.28 -1.2,-26.35 52.71,-50.31 98.24,-50.31 17.97,0 57.5,4.79 57.5,46.72 0,37.14 -23.96,77.87 -63.49,77.87l0 0zm463.6 -62.3c-37.14,-1.2 -51.51,-13.18 -51.51,-27.55 1.2,-16.77 22.76,-34.74 53.91,-34.74 31.15,0 52.71,17.97 52.71,34.74 1.2,14.37 -14.38,28.75 -55.11,27.55l0 0zm1092.54 45.53c-17.97,0 -25.16,-17.97 -26.36,-31.15 0,-16.77 14.38,-40.73 29.95,-40.73 17.97,0 27.56,20.36 27.56,33.54 0,15.57 -9.59,38.34 -31.15,38.34l0 0zm299.49 80.26c-21.56,0 -28.75,-8.38 -28.75,-19.17 0,-8.38 10.78,-17.97 27.55,-17.97 11.98,0 23.96,11.98 23.96,22.77 0,7.18 -5.99,14.37 -22.76,14.37l0 0zm-192.87 53.91c-19.17,0 -27.55,-9.58 -27.55,-20.36 0,-15.58 13.18,-34.75 31.15,-34.75 16.77,1.2 25.15,10.79 25.15,22.77 0,14.37 -9.58,32.34 -28.75,32.34l0 0z"/>
   <path id="4" class="fil1" d="M19769.46 4721.13c89.85,0 160.52,-31.15 231.21,-31.15 10.78,0 33.54,8.39 52.71,9.59 17.97,1.2 33.54,-5.99 33.54,-34.74 0,-28.76 -43.13,-118.61 -83.86,-118.61 -70.68,0 -76.67,33.55 -109.02,33.55 -32.34,0 -51.51,-31.15 -51.51,-62.3 0,-11.98 3.59,-23.96 10.78,-33.54 21.57,-16.77 70.68,-17.97 98.24,-33.55 27.55,-15.57 86.25,-45.52 105.42,-45.52 16.77,0 28.75,14.38 35.94,55.11 9.59,51.51 13.18,88.65 46.72,129.37 58.71,71.88 152.14,125.79 246.78,125.79 69.49,0 119.8,-13.18 168.91,-31.15 26.36,-11.98 56.31,-25.15 56.31,-94.64 0,-15.57 5.99,-39.53 34.74,-39.53 46.72,0 99.43,65.89 134.17,83.86 16.77,9.58 37.13,13.18 59.9,13.18 106.62,2.39 280.32,-93.45 280.32,-185.68 0,-21.57 -9.59,-46.73 -32.35,-79.07 -20.36,-27.56 -32.34,-74.28 -61.1,-91.05 -39.53,-22.76 -100.63,-20.37 -100.63,-68.29 0,-32.34 44.33,-53.91 89.85,-53.91 49.12,0 99.44,11.98 99.44,46.73 0,14.37 -13.18,23.96 -13.18,39.53 0,22.76 38.33,27.55 49.12,41.93 25.15,32.35 21.56,97.04 64.69,97.04 33.54,0 38.33,-35.94 45.52,-65.89 9.59,-45.53 41.93,-73.08 70.68,-107.82 19.17,-25.16 19.17,-31.15 46.73,-44.33 23.96,-13.18 49.11,-3.59 70.68,-23.96 31.15,-29.95 49.12,-109.02 49.12,-148.54 0,-20.37 -10.79,-39.54 -10.79,-61.1 0,-31.15 23.96,-37.14 38.34,-67.09 20.37,-32.34 7.19,-70.68 16.77,-112.61 17.97,-89.85 74.28,-147.34 74.28,-237.19 0,-53.91 -17.97,-159.33 -17.97,-213.24 0,-71.88 16.77,-159.32 16.77,-251.57 0,-23.96 -3.59,-46.72 -14.38,-63.49 -23.96,-38.34 -93.44,-37.14 -93.44,-81.47 -1.2,-41.93 100.63,-47.92 100.63,-109.01 0,-46.73 -56.3,-68.29 -56.3,-109.02 0,-43.13 46.72,-67.09 46.72,-100.63 0,-27.56 -39.54,-63.5 -62.3,-62.3 -31.15,0 -53.91,50.32 -92.24,50.32 -25.16,0 -41.93,-20.37 -41.93,-45.53 0,-39.53 32.34,-63.49 68.28,-64.69 17.97,-1.2 35.94,3.59 57.51,3.59 38.33,0 83.86,-21.56 91.04,-85.06 2.4,-23.96 5.99,-56.3 5.99,-91.04 0,-87.46 -20.36,-186.88 -117.4,-186.88 -45.52,0 -98.24,13.18 -134.17,17.97 -43.12,3.59 -87.45,37.14 -125.79,37.14 -44.32,0 -71.88,-31.15 -124.59,-29.95 -34.74,1.19 -88.65,4.79 -124.59,4.79 -14.38,0 -29.95,-1.2 -44.33,-2.4 -115,-8.38 -227.61,-28.75 -343.81,-35.94 -124.59,-8.38 -245.58,-1.2 -370.18,-1.2 -31.14,0 -61.09,3.6 -92.24,16.78 -32.35,13.17 -89.85,45.52 -121,59.9 -61.1,26.35 -68.29,71.88 -68.29,119.8 0,55.1 43.13,113.81 44.33,152.13 4.79,121 5.99,154.54 5.99,234.8 0,89.85 -43.13,174.9 -43.13,224.02 0,73.08 77.87,81.46 143.75,98.23 73.08,19.17 148.54,26.36 220.42,26.36 34.75,0 162.92,-19.17 216.83,-19.17 50.32,0 91.05,14.38 109.02,80.27 26.36,105.42 26.36,210.84 26.36,342.62 0,99.43 -22.76,231.2 -109.02,297.09 -73.08,55.11 -203.65,26.36 -289.91,57.5 -38.33,14.38 -74.27,53.91 -116.2,53.91 -46.73,0 -51.52,-46.72 -140.16,-46.72 -201.25,0 -300.69,-2.39 -343.82,-52.71 -26.35,-29.95 -16.77,-85.06 -43.12,-122.2 -34.75,-52.71 -45.53,-86.25 -45.53,-155.73 0,-178.49 38.34,-531.89 38.34,-799.03 0,-85.06 -2.4,-171.31 -4.79,-256.37 -2.4,-82.66 -15.58,-164.11 -15.58,-245.58 0,-27.55 1.2,-56.3 5.99,-83.86 8.39,-53.91 8.39,-107.82 8.39,-162.91 0,-80.27 10.78,-148.55 10.78,-233.6 0,-109.02 -29.95,-233.6 -29.95,-353.4 0,-186.88 92.25,-400.12 310.27,-400.12 110.22,0 265.95,39.54 367.78,39.54 51.51,0 101.83,-10.79 150.94,-10.79 38.33,0 77.87,7.19 116.2,34.75 103.03,71.88 100.64,178.49 111.42,294.7 3.59,43.12 -1.2,99.43 27.55,134.16 10.78,11.98 28.75,14.38 38.34,27.56 38.33,47.92 51.51,92.24 113.81,92.24 71.88,0 116.2,-55.11 149.74,-55.11 39.53,0 45.52,33.55 138.96,33.55 28.75,0 65.89,-9.59 73.07,-29.95 2.4,-10.78 0,-52.71 28.76,-52.71 11.98,0 22.76,7.18 22.76,19.16 0,22.77 -9.59,37.14 -9.59,49.12 0,11.98 11.98,20.37 52.72,27.56 44.32,8.38 82.66,-2.4 128.17,10.78 22.76,7.19 40.73,11.98 57.51,11.98 71.88,-3.6 123.39,-105.43 123.39,-198.86 0,-44.33 -5.99,-88.65 -4.79,-126.99 2.39,-40.73 15.57,-97.04 15.57,-144.95 0,-34.74 -17.97,-87.45 -32.34,-129.37 -37.14,-112.61 -45.53,-243.19 -99.44,-349.81 -43.13,-85.06 -124.59,-144.95 -188.07,-215.63 -75.48,-83.86 -148.55,-144.95 -249.18,-196.46 -100.63,-51.51 -200.05,-117.4 -306.68,-154.53 -115,-38.34 -237.19,-47.92 -360.59,-47.92 -89.85,0 -219.22,5.99 -301.88,5.99 -227.61,1.2 -522.31,35.94 -687.62,98.23 -105.43,39.54 -240.79,111.42 -305.48,161.72 -87.46,68.29 -164.12,166.52 -225.22,259.96 -110.22,170.11 -172.5,355.8 -172.5,554.65 0,103.03 59.9,140.16 59.9,233.61 0,51.51 -39.54,74.27 -63.5,111.41 -27.55,43.13 -34.74,110.22 -34.74,180.89 0,79.07 9.59,191.67 9.59,256.36 0,80.27 -3.6,159.32 -3.6,240.79 0,94.64 13.18,228.81 13.18,343.81 0,137.77 -16.77,323.46 -16.77,500.75 0,197.66 7.19,432.46 19.17,531.89 14.37,116.21 21.56,197.66 27.55,313.87 3.59,52.71 8.39,132.97 32.35,182.08 25.15,52.72 52.71,94.65 76.67,149.75 41.93,93.44 105.42,156.92 178.49,227.61 86.26,82.66 156.93,159.32 253.97,228.8 70.68,50.32 184.48,62.3 265.94,89.85 91.05,32.35 170.11,49.12 258.76,49.12l0 0zm1309.37 -3802.31c-17.97,0 -35.94,-15.57 -35.94,-35.94 0,-22.76 14.37,-31.14 29.95,-32.34 20.36,0 43.13,14.37 41.93,35.94 0,22.76 -17.97,32.34 -35.94,32.34l0 0zm301.88 1867.62c-57.5,2.4 -112.61,-28.75 -112.61,-70.68 0,-38.34 26.36,-98.24 68.29,-98.24 39.53,0 33.54,52.71 47.92,73.08 23.96,31.15 82.66,14.38 82.66,47.92 0,22.76 -56.31,47.92 -86.26,47.92l0 0zm-294.69 -53.91c-25.16,0 -34.75,-10.78 -33.55,-25.16 1.2,-26.35 37.14,-62.29 76.67,-62.29 25.16,0 35.94,9.58 37.14,23.96 2.4,25.15 -33.54,63.49 -80.26,63.49l0 0zm-89.85 257.56c-61.1,0 -113.81,-29.95 -113.81,-65.89 0,-20.37 27.55,-29.95 61.09,-29.95 28.76,-5.99 116.21,7.19 115.01,41.93 0,40.73 -28.75,53.91 -62.29,53.91l0 0zm-124.6 149.74c-37.13,0 -65.89,-34.74 -65.89,-58.7 0,-15.58 9.59,-26.36 34.75,-26.36 32.34,0 53.91,35.94 52.71,61.1 0,14.38 -7.19,23.96 -21.57,23.96l0 0zm592.99 116.21c-22.76,0 -46.72,-38.34 -46.72,-63.5 0,-11.98 5.99,-21.56 21.57,-21.56 22.76,0 50.31,38.33 50.31,62.29 0,9.59 -7.19,22.77 -25.16,22.77zm-191.67 44.32c-23.96,-1.2 -55.1,-19.17 -55.1,-40.73 0,-19.17 15.57,-28.75 33.54,-29.95 23.96,-1.2 51.51,13.18 51.51,45.52 0,17.97 -13.17,25.16 -29.95,25.16l0 0zm-2297.67 227.61c-21.57,0 -46.73,-15.57 -47.92,-37.14 -1.2,-29.95 14.37,-44.32 33.54,-44.32 25.16,0 46.72,21.56 46.72,49.12 0,23.96 -15.57,32.34 -32.34,32.34l0 0zm2309.65 160.52c-22.76,0 -43.12,-13.17 -43.12,-47.92 1.19,-33.54 38.33,-136.56 82.66,-135.36 19.17,0 35.94,16.77 35.94,39.53 -1.2,45.53 -50.32,143.75 -75.48,143.75l0 0zm-309.07 -110.21c-15.57,0 -21.56,-7.19 -21.56,-15.58 0,-19.16 28.75,-49.11 47.92,-49.11 16.77,0 22.76,8.38 22.76,17.97 0,17.97 -23.96,45.52 -47.92,45.52l-1.2 1.2zm529.5 43.13c-43.13,0 -95.84,-32.35 -95.84,-62.3 0,-17.97 16.77,-38.34 40.73,-38.34 41.93,0 117.4,40.74 117.4,70.69 -3.59,11.98 -19.17,29.95 -62.29,29.95l0 0zm-396.52 70.68c-25.16,0 -63.5,-22.76 -63.5,-55.11 0,-19.17 17.97,-51.51 34.75,-52.71 20.36,-1.2 50.31,32.34 50.31,79.07 0,15.57 -8.38,28.75 -21.56,28.75l0 0zm-1638.81 -34.74c-16.77,0 -34.74,-10.79 -34.74,-33.55 -1.2,-20.36 21.56,-38.33 41.93,-38.33 14.38,0 27.55,10.78 27.55,35.94 0,23.96 -16.77,35.94 -34.74,35.94l0 0zm62.3 367.77c-37.14,0 -70.68,-49.12 -70.68,-82.66 0,-73.08 46.72,-126.99 104.22,-126.99 39.54,0 52.71,21.57 52.71,32.35 0,14.37 -22.76,34.74 -41.93,61.1 -14.37,20.36 -7.18,50.31 -7.18,74.27 0,27.56 -15.58,40.74 -37.14,41.93l0 0zm1514.21 -14.37c-13.18,0 -29.95,-8.39 -29.95,-29.95 0,-50.32 32.35,-126.99 61.1,-128.18 17.97,-1.2 37.14,37.14 37.14,75.47 0,56.31 -45.53,82.67 -68.29,82.67zm-454.02 -39.54c-39.53,2.4 -106.62,-57.5 -106.62,-93.44 0,-11.98 4.79,-20.37 16.77,-20.37 31.15,-2.39 103.03,43.13 103.03,87.46 0,17.97 -4.79,25.15 -13.18,26.35zm-632.53 43.13c-32.34,0 -52.71,-49.12 -53.91,-91.05 0,-29.95 10.79,-57.5 37.14,-57.5 28.75,0 93.45,41.93 93.45,86.25 0,25.16 -46.73,62.3 -76.68,62.3l0 0zm1347.71 10.78c-33.55,0 -92.25,-29.95 -92.25,-61.1 0,-31.14 38.34,-47.92 110.22,-47.92 35.94,0 62.29,28.76 62.29,45.53 0,29.95 -35.94,63.49 -80.26,63.49l0 0zm-1162.02 -50.31c-23.96,1.19 -38.33,-17.97 -37.13,-33.55 0,-10.78 7.18,-20.36 23.96,-20.36 22.76,0 38.33,16.77 39.53,31.14 1.2,11.98 -7.19,22.77 -26.36,22.77zm312.67 128.17c-17.97,0 -26.35,-11.98 -26.35,-26.35 -1.2,-22.76 14.37,-50.32 35.94,-50.32 19.17,0 28.75,10.78 28.75,23.96 0,22.76 -16.77,52.71 -38.34,52.71l0 0zm-144.95 28.76c-43.12,0 -124.59,-45.53 -124.59,-76.68 0,-15.57 19.17,-23.96 41.93,-23.96 46.72,0 136.56,19.17 136.56,70.69 0,23.96 -28.75,29.95 -53.91,29.95zm952.38 23.96c-21.57,0 -29.95,-11.98 -29.95,-27.56 0,-22.76 21.56,-53.91 49.11,-53.91 19.17,0 34.75,17.97 34.75,37.14 0,16.77 -13.18,44.33 -53.91,44.33zm-791.85 192.86c-58.71,0 -85.06,-22.76 -85.06,-50.31 0,-19.17 13.18,-44.33 38.33,-71.88 26.36,-27.56 100.64,-148.54 140.16,-148.54 16.77,0 17.97,11.98 17.97,19.16 0,27.56 -21.56,46.73 -21.56,70.69 0,22.76 40.73,61.09 40.73,88.65 0,70.68 -88.65,92.24 -130.57,92.24l0 0zm-430.07 -50.31c-15.57,0 -23.96,-10.78 -23.96,-23.96 0,-23.96 20.37,-46.72 41.93,-46.72 11.98,0 17.97,9.58 17.97,22.76 0,20.36 -14.37,47.92 -35.94,47.92zm940.4 146.14c-11.98,0 -28.76,-7.18 -28.76,-16.77 0,-9.58 13.18,-16.77 25.16,-16.77 10.78,-1.2 19.17,4.79 20.37,17.97 0,10.78 -7.19,15.57 -16.77,15.57l0 0zm-652.89 57.51c-10.78,0 -15.57,-5.99 -15.57,-14.38 0,-15.57 11.98,-34.74 21.56,-34.74 8.39,0 16.78,13.18 16.78,26.36 0,11.98 -5.99,22.76 -22.77,22.76l0 0zm543.88 41.93c-25.16,-1.2 -41.93,-25.16 -41.93,-44.33 0,-14.37 8.38,-26.35 32.34,-26.35 33.55,0 50.32,21.56 50.32,41.93 0,15.57 -13.18,29.95 -40.73,28.75l0 0zm-567.84 106.62c-22.76,1.2 -52.71,-14.38 -52.71,-44.33 0,-19.16 13.18,-44.32 28.75,-44.32 15.58,0 47.92,23.96 47.92,64.69 0,15.57 -8.38,23.96 -23.96,23.96z"/>
   <path id="5" class="fil1" d="M22988.38 4721.13c27.55,1.2 55.1,-1.2 79.06,-10.78 47.92,-16.77 76.68,-55.11 115.01,-93.44 22.76,-22.77 91.05,-100.64 124.59,-103.03 13.18,-1.2 21.57,9.58 21.57,38.33 0,26.36 -11.98,45.53 -11.98,69.49 -1.2,21.56 10.78,49.12 58.7,49.12 31.15,0 55.11,-38.34 63.49,-77.87 8.39,-40.74 11.98,-83.86 11.98,-128.18 0,-81.46 -8.38,-165.31 -8.38,-243.18 0,-170.11 15.57,-345.02 15.57,-517.52 0,-98.24 -22.76,-371.37 -22.76,-572.63 0,-70.68 -10.78,-142.55 -10.78,-213.23 0,-83.86 10.78,-135.36 10.78,-203.65 0,-73.08 -16.77,-104.23 -16.77,-150.94 0,-37.14 28.75,-67.09 28.75,-112.61 0,-58.7 -33.54,-86.26 -33.54,-129.38 0,-63.49 19.16,-104.22 19.16,-173.7 0,-63.49 -8.38,-165.31 -8.38,-221.62 0,-92.24 7.19,-161.72 7.19,-231.2 0,-37.14 -8.39,-91.05 -8.39,-144.95 0,-63.49 25.16,-138.96 25.16,-203.65 0,-56.3 -5.99,-99.43 -49.12,-143.75 -27.55,-29.95 -70.68,-41.93 -70.68,-73.08 0,-22.76 20.36,-40.73 22.76,-59.9 2.4,-20.36 -2.4,-41.93 -2.4,-63.49 0,-73.08 32.35,-89.85 68.29,-123.4 32.35,-28.75 40.73,-83.86 40.73,-142.55 0,-69.48 -11.98,-146.14 -13.18,-192.87 0,-7.18 0,-13.17 0,-20.36l0 -11.98c0,-44.33 -2.39,-77.87 -43.12,-110.22 -33.55,-27.55 -82.67,-32.34 -115.01,-62.29 -16.77,-15.58 -22.76,-28.76 -22.76,-41.93 0,-17.97 11.98,-34.75 11.98,-53.91 1.19,-17.97 -10.79,-39.54 -31.15,-39.54 -17.97,-1.2 -39.54,11.98 -58.7,11.98 -23.96,0 -41.93,-15.57 -41.93,-32.34 0,-39.54 70.68,-79.07 104.22,-79.07 49.12,0 81.47,38.33 131.77,38.33 22.76,0 40.73,-15.57 40.73,-37.13 0,-44.33 -65.89,-73.08 -173.7,-73.08 -100.63,0 -224.01,11.98 -307.87,11.98 -121,0 -213.24,-13.18 -303.09,-13.18 -85.06,0 -166.51,13.18 -166.51,101.83 0,23.96 11.98,65.89 11.98,110.22 0,44.32 -11.98,86.25 -15.57,131.77 -5.99,71.88 0,125.79 -3.6,190.47 -3.59,63.49 -4.79,125.79 -4.79,188.07 0,135.37 5.99,271.94 5.99,407.31 1.2,76.67 -16.77,247.97 -7.19,359.39 14.38,172.5 16.77,345.01 16.77,517.51 0,112.61 0,224.02 0,335.43 0,172.5 -16.77,400.12 -16.77,493.56 0,38.34 4.79,74.28 4.79,112.61 0,25.16 -3.59,61.1 -3.59,92.25 0,17.97 7.19,35.94 15.57,47.92 43.13,63.49 119.8,107.82 119.8,168.91 0,56.3 -97.03,116.2 -97.03,182.08 0,34.74 22.76,40.73 22.76,80.27 0,33.54 -41.93,43.13 -41.93,75.47 0,16.77 5.99,27.56 4.79,44.33 -3.59,58.7 -17.97,179.69 -17.97,238.39 -1.2,59.9 -2.4,104.23 -2.4,149.74 0,40.73 1.2,82.66 7.19,135.37 4.79,52.71 17.97,194.06 73.08,194.06 38.34,0 59.9,-41.93 79.07,-41.93 7.19,0 13.18,10.78 13.18,29.95 0,45.53 -39.54,77.87 -39.54,128.18 0,27.55 46.72,56.3 46.72,85.06 0,17.97 -15.57,28.75 -27.55,27.55 -44.33,-5.99 -61.1,-45.52 -104.23,-45.52 -17.97,0 -33.54,8.38 -33.54,27.55 0,44.33 52.71,50.32 104.23,70.68 86.25,34.74 203.65,39.54 297.09,41.93 33.55,1.2 73.08,5.99 111.42,5.99l0 0zm410.89 -4412.07c20.37,0 43.13,-17.97 43.13,-49.12 0,-21.56 -13.18,-29.95 -27.56,-29.95 -19.16,1.2 -41.93,17.97 -41.93,44.33 0,22.76 11.98,33.54 26.36,34.74l0 0zm-569.03 282.72c-29.95,0 -49.12,-21.56 -50.32,-41.93 -1.19,-19.17 14.38,-38.34 49.12,-39.53 33.55,-1.2 49.12,16.77 49.12,37.13 0,21.57 -19.17,44.33 -47.92,44.33l0 0zm328.24 19.17c-16.77,0 -22.76,-8.39 -22.76,-19.17 1.2,-17.97 21.56,-43.13 40.73,-43.13 17.97,0 25.16,7.19 26.36,16.77 1.2,17.97 -23.96,45.53 -44.33,45.53zm146.15 74.27c-17.97,0 -29.95,-15.57 -28.75,-29.95 1.19,-14.37 13.17,-26.35 39.53,-26.35 22.76,0 35.94,14.37 34.74,28.75 0,13.18 -14.37,27.55 -45.52,27.55l0 0zm-228.81 104.23c-40.73,0 -61.1,-21.56 -59.9,-44.33 0,-23.96 23.96,-47.92 69.48,-47.92 41.93,0 59.9,20.37 58.71,41.93 0,23.96 -25.16,50.32 -68.29,50.32zm45.52 160.52c-21.56,0 -32.34,-14.37 -32.34,-29.95 0,-15.57 11.98,-32.34 34.74,-32.34 17.97,0 26.36,16.77 26.36,32.34 -1.2,15.58 -10.79,29.95 -28.76,29.95l0 0zm61.1 1150.03c-21.56,-1.19 -31.15,-16.77 -31.15,-32.34 1.2,-16.77 11.98,-32.35 33.55,-32.35 17.97,0 28.75,17.97 28.75,33.55 0,16.77 -9.58,31.14 -31.15,31.14l0 0zm-497.15 269.54c-29.95,-2.39 -69.48,-34.74 -69.48,-83.86 0,-29.95 13.17,-43.12 29.95,-43.12 31.14,-1.2 76.67,40.73 76.67,85.05 0,29.95 -16.77,43.13 -37.14,41.93l0 0zm45.52 221.63c-23.96,0 -40.73,-31.15 -40.73,-55.11 0,-15.58 8.39,-28.76 26.36,-28.76 21.56,0 39.53,31.15 39.53,56.31 0,15.58 -7.18,27.56 -25.16,27.56l0 0z"/>
   <path id="6" class="fil1" d="M26088.68 4754.68c68.28,-5.99 131.77,-29.95 197.66,-39.54 85.05,-10.78 146.14,-39.53 226.41,-67.09 64.69,-22.76 125.79,-31.14 182.08,-73.07 61.1,-43.13 101.83,-106.63 150.94,-161.72 38.34,-43.13 94.64,-67.09 128.18,-112.62 40.73,-55.1 55.11,-126.98 92.24,-184.48 34.75,-53.91 77.87,-95.84 99.44,-156.93 15.57,-44.32 28.75,-101.83 28.75,-154.53 0,-23.96 -3.59,-46.72 -9.58,-67.09 -9.59,-31.15 -41.93,-58.7 -41.93,-83.86 0,-23.96 19.16,-34.74 35.94,-57.5 15.57,-21.57 22.76,-45.53 22.76,-70.68 0,-33.55 -10.78,-69.49 -34.74,-97.04 -58.71,-65.89 -101.83,-71.88 -101.83,-101.83 0,-33.55 97.03,-51.52 97.03,-101.83 0,-27.56 -26.35,-44.33 -26.35,-89.85 0,-28.75 21.56,-40.73 34.74,-70.68 13.18,-26.36 8.39,-61.1 8.39,-89.85 0,-27.56 3.59,-58.71 3.59,-88.66 0,-35.94 -4.79,-62.29 -21.56,-87.45 -23.96,-37.14 -64.7,-74.28 -64.7,-121 0,-37.14 35.94,-53.91 50.32,-79.07 20.37,-29.95 20.37,-94.64 25.16,-117.4 13.18,-47.92 16.77,-160.52 16.77,-195.27 0,-82.66 -11.98,-156.92 -11.98,-219.22 0,-17.97 5.99,-47.92 5.99,-74.28 0,-16.77 -2.4,-32.34 -9.58,-41.93 -15.58,-21.56 -46.73,-25.15 -65.89,-43.12 -16.78,-13.18 -62.3,-62.3 -59.9,-80.27 1.19,-16.77 8.38,-29.95 8.38,-45.52 0,-22.77 -7.19,-44.33 -7.19,-64.7 0,-17.97 5.99,-34.74 29.95,-52.71 56.31,-40.73 76.68,-25.16 86.26,-98.23 4.79,-43.13 27.55,-87.46 27.55,-132.97 0,-15.58 -3.59,-32.35 -10.78,-49.12 -17.97,-35.94 -94.64,-71.88 -94.64,-118.6 0,-19.17 14.38,-44.33 31.15,-44.33 21.56,-1.2 35.94,33.55 59.9,33.55 15.57,0 25.16,-27.56 25.16,-57.51 0,-34.74 -11.98,-77.87 -14.38,-88.65 -4.79,-28.75 -8.39,-49.12 -32.35,-68.29 -16.77,-13.18 -44.32,-11.98 -58.7,-29.95 -19.17,-25.16 -9.58,-50.31 -9.58,-67.09 0,-11.98 -4.79,-26.35 -29.95,-26.35 -50.32,-1.2 -129.38,46.72 -184.48,46.72 -25.16,0 -58.71,-13.18 -58.71,-39.53 0,-28.76 25.16,-53.91 47.92,-71.88 62.3,-46.73 126.99,-28.76 196.47,-49.12 32.34,-9.59 44.32,-22.76 44.32,-43.13 0,-13.18 -5.99,-29.95 -14.37,-49.12 -23.96,-58.7 -73.08,-186.88 -132.97,-186.88 -45.53,0 -75.48,70.69 -112.61,99.44 -17.97,14.37 -46.73,40.73 -71.88,40.73 -27.56,0 -33.55,-41.93 -38.34,-56.31 -13.18,-51.51 -77.87,-67.08 -76.67,-120.99 1.2,-46.73 39.53,-76.68 79.07,-76.68 14.37,0 28.75,3.6 41.93,11.98 17.97,13.18 47.92,70.69 77.87,70.69 20.36,0 35.94,-17.97 35.94,-46.73 0,-47.92 -57.51,-99.43 -82.67,-123.39 -41.93,-41.93 -81.46,-105.42 -135.36,-136.56 -56.31,-32.35 -144.95,-49.12 -207.24,-69.49 -40.74,-13.17 -116.21,-45.52 -168.91,-45.52 -27.56,0 -57.51,10.78 -57.51,31.15 0,25.16 32.35,57.5 32.35,87.45 0,3.6 -1.2,7.19 -2.4,10.78 -8.38,27.56 -25.15,37.14 -41.93,37.14 -23.96,0 -47.92,-17.97 -57.5,-41.93 -11.98,-32.34 0,-53.91 -23.96,-81.46 -17.97,-20.37 -51.51,-40.73 -73.08,-56.31 -20.36,-14.37 -47.92,-27.55 -70.68,-27.55 -21.57,0 -44.33,11.98 -44.33,41.93 0,16.77 15.58,37.14 15.58,50.31 0,21.57 -22.77,38.34 -45.53,39.54 -75.47,-1.2 -86.25,-77.87 -134.16,-122.2 -20.37,-19.17 -56.31,-23.96 -95.84,-23.96 -43.13,0 -88.66,5.99 -117.41,5.99 -73.08,1.2 -146.14,3.6 -219.22,5.99 -82.66,3.6 -167.71,1.2 -247.98,21.57 -64.69,15.57 -112.61,56.3 -174.9,76.67 -143.75,47.92 -249.17,138.96 -360.59,234.8 -97.03,83.86 -167.71,209.64 -228.8,321.05 -76.68,142.55 -82.67,263.55 -82.67,431.26 0,147.35 -31.14,295.9 -31.14,442.04 0,141.36 28.75,281.52 28.75,424.08 0,155.73 -11.98,854.14 -11.98,893.67 0,119.8 -25.16,402.5 -25.16,513.92 0,73.08 7.19,150.94 17.97,222.82 10.78,69.48 20.37,107.82 23.96,185.68 5.99,130.57 44.33,267.14 111.41,378.56 69.49,116.2 180.89,210.83 279.13,301.88 49.12,45.53 95.84,95.84 155.73,128.18 58.7,32.34 122.2,38.33 185.68,56.3 98.24,29.95 188.08,82.67 297.09,82.67 58.71,0 118.61,-9.59 178.5,-9.59 141.35,0 342.61,21.57 424.07,21.57 62.29,0 124.59,7.18 188.08,0l0 0zm510.32 -4402.49c-19.16,0 -39.53,-8.39 -39.53,-28.75 0,-19.17 16.77,-27.56 34.74,-28.75 21.57,0 45.53,11.98 45.53,35.94 0,14.37 -20.37,22.76 -40.74,21.56l0 0zm-444.43 128.18c-32.35,0 -49.12,-31.15 -49.12,-56.31 0,-25.16 17.97,-51.51 50.31,-50.32 33.55,0 49.12,25.16 49.12,51.52 0,25.16 -22.76,55.11 -50.31,55.11l0 0zm-317.47 204.84c-21.56,-1.19 -35.94,-21.56 -35.94,-35.94 0,-21.56 20.37,-43.12 40.74,-43.12 26.35,0 38.33,17.97 38.33,35.94 0,20.36 -15.57,43.12 -43.13,43.12l0 0zm345.02 17.97c-13.18,-1.19 -27.55,-9.58 -27.55,-25.15 0,-16.78 16.77,-29.95 31.14,-28.76 11.98,0 22.77,8.39 22.77,29.95 0,16.78 -13.18,23.96 -26.36,23.96l0 0zm-449.23 3113.49c-117.41,0 -231.21,-14.38 -347.41,-35.94 -52.71,-10.78 -123.4,-11.98 -152.14,-65.89 -23.96,-43.13 -27.55,-135.36 -29.95,-183.28 -5.99,-123.4 -20.36,-231.21 -20.36,-354.6 0,-173.7 0,-349.81 0,-524.71 0,-91.05 7.18,-257.56 7.18,-347.41 0,-148.54 -26.35,-303.08 -26.35,-505.53 0,-99.44 16.77,-194.07 16.77,-383.34 0,-137.76 5.99,-210.84 29.95,-288.71 41.93,-142.56 146.15,-168.91 288.71,-168.91 82.66,0 165.31,3.59 247.97,3.59 41.93,0 87.46,-41.93 119.8,-41.93 52.72,0 85.06,51.52 154.54,51.52 86.25,0 121,-110.22 186.88,-110.22 16.77,0 23.96,9.58 23.96,21.56 0,13.18 -8.39,33.55 -19.17,51.52 -17.97,31.15 -26.36,50.31 -26.36,73.08 0,19.16 5.99,39.53 17.97,70.68 40.73,109.02 41.93,225.21 47.92,341.42 8.39,144.95 9.59,334.23 9.59,432.46 0,35.94 7.18,62.29 7.18,109.02 0,52.71 -17.97,89.85 -22.76,141.35 -13.18,172.5 15.58,426.47 15.58,596.59 0,118.6 -1.2,237.19 -3.6,355.79 -1.2,97.04 -8.38,166.51 -8.38,262.35 0,40.74 11.98,107.82 11.98,149.74 0,123.4 -19.17,238.4 -138.96,294.7 -69.49,32.35 -135.37,23.96 -208.45,34.74 -62.29,9.59 -112.61,20.37 -182.08,20.37l0 0zm921.22 -2758.89c-45.52,0 -64.69,-32.34 -64.69,-57.5 0,-29.95 27.55,-59.9 77.87,-58.7 35.94,1.19 83.86,25.15 83.86,64.69 0,41.93 -52.71,51.51 -97.04,51.51zm159.33 71.88c-17.97,-1.2 -25.16,-9.58 -25.16,-19.17 0,-11.98 14.37,-25.15 37.14,-25.15 19.16,0 26.35,7.18 26.35,15.57 -1.2,13.18 -17.97,28.75 -38.33,28.75l0 0zm49.11 309.08c-68.28,0 -65.89,-93.45 -105.42,-93.45 -31.15,0 -61.1,49.12 -91.05,49.12 -33.54,0 -50.31,-25.16 -50.31,-67.09 0,-58.7 4.79,-116.2 44.32,-142.55 16.77,-11.98 55.11,-21.56 85.06,-21.56 14.38,0 27.55,2.39 34.74,8.38 31.15,25.16 35.94,93.45 62.3,126.99 22.76,27.56 76.67,53.91 74.27,95.84 -1.19,29.95 -27.55,44.33 -53.91,44.33l0 0zm-470.79 -82.66c-33.54,0 -58.7,-31.15 -58.7,-57.51 0,-17.97 13.18,-34.74 45.52,-34.74 33.55,0 59.9,32.35 59.9,57.5 0,19.17 -13.18,34.75 -46.72,34.75l0 0zm367.78 294.69c-25.16,0 -35.94,-17.97 -34.75,-38.33 0,-22.76 17.97,-50.32 46.73,-50.32 25.15,0 35.94,16.77 37.13,35.94 0,25.16 -16.77,52.71 -49.11,52.71l0 0zm-216.83 107.82c-19.17,-2.39 -28.75,-17.97 -28.75,-33.54 -1.2,-15.57 9.58,-31.15 29.95,-29.95 20.36,0 31.14,16.77 32.34,32.35 0,16.77 -9.58,33.54 -33.54,31.14l0 0zm263.55 396.52c-43.13,0 -98.24,-46.72 -98.24,-81.46 0,-19.17 2.4,-37.14 44.33,-37.14 38.33,0 125.79,11.98 125.79,63.49 0,31.15 -40.73,55.11 -71.88,55.11l0 0zm-227.61 658.87c-27.56,0 -39.54,-17.97 -39.54,-37.13 0,-21.57 15.58,-44.33 40.74,-44.33 27.55,0 41.93,19.17 41.93,39.53 0,20.37 -13.18,41.93 -43.13,41.93l0 0zm-2188.66 930.81c-29.95,0 -40.73,-23.96 -40.73,-39.53 0,-10.79 9.58,-20.37 29.95,-20.37 23.96,0 44.32,19.17 44.32,34.74 0,9.59 -13.18,25.16 -33.54,25.16zm1480.67 241.99c-20.37,0 -44.33,-16.78 -44.33,-41.93 0,-27.56 15.58,-40.74 33.55,-41.93 21.56,-1.2 46.72,14.37 46.72,44.32 0,23.96 -16.77,38.34 -35.94,39.54l0 0zm-1371.66 112.61c-31.15,-1.2 -43.13,-15.57 -43.13,-33.54 0,-31.15 38.33,-71.89 83.86,-71.89 23.96,0 34.74,10.79 34.74,26.36 1.2,32.35 -39.53,81.47 -76.67,79.07l1.2 0z"/>
  </g>
 </g>
</svg>
