<svg xmlns="http://www.w3.org/2000/svg" xmlns:xlink="http://www.w3.org/1999/xlink" width="1080" zoomAndPan="magnify" viewBox="0 0 810 809.999993" height="1080" preserveAspectRatio="xMidYMid meet" version="1.0"><defs><filter x="0%" y="0%" width="100%" height="100%" id="997413fb42"><feColorMatrix values="0 0 0 0 1 0 0 0 0 1 0 0 0 0 1 0 0 0 1 0" color-interpolation-filters="sRGB"/></filter><g/><clipPath id="97fae343a2"><path d="M 81.40625 81.40625 L 728.59375 81.40625 L 728.59375 728.59375 L 81.40625 728.59375 Z M 81.40625 81.40625 " clip-rule="nonzero"/></clipPath><clipPath id="c415f797f1"><path d="M 405 81.40625 C 226.285156 81.40625 81.40625 226.285156 81.40625 405 C 81.40625 583.714844 226.285156 728.59375 405 728.59375 C 583.714844 728.59375 728.59375 583.714844 728.59375 405 C 728.59375 226.285156 583.714844 81.40625 405 81.40625 Z M 405 81.40625 " clip-rule="nonzero"/></clipPath><clipPath id="4a7a641919"><path d="M 264 278 L 621 278 L 621 469.546875 L 264 469.546875 Z M 264 278 " clip-rule="nonzero"/></clipPath><clipPath id="4afa46de25"><path d="M 406 171.921875 L 633 171.921875 L 633 256 L 406 256 Z M 406 171.921875 " clip-rule="nonzero"/></clipPath><mask id="7b7f62d4f2"><g filter="url(#997413fb42)"><rect x="-81" width="972" fill="#000000" y="-80.999999" height="971.999992" fill-opacity="0.9"/></g></mask><clipPath id="aacb5a2115"><rect x="0" width="442" y="0" height="256"/></clipPath></defs><rect x="-81" width="972" fill="#ffffff" y="-80.999999" height="971.999992" fill-opacity="1"/><rect x="-81" width="972" fill="#ffffff" y="-80.999999" height="971.999992" fill-opacity="1"/><g clip-path="url(#97fae343a2)"><g clip-path="url(#c415f797f1)"><path fill="#ebe8e2" d="M 81.40625 81.40625 L 728.59375 81.40625 L 728.59375 728.59375 L 81.40625 728.59375 Z M 81.40625 81.40625 " fill-opacity="1" fill-rule="nonzero"/></g></g><g clip-path="url(#4a7a641919)"><path fill="#d6934c" d="M 614.957031 278.941406 L 270.242188 278.941406 C 266.925781 278.941406 264.269531 281.59375 264.269531 284.910156 C 264.269531 352.792969 303.554688 412.863281 365.320312 440.796875 L 365.320312 463.203125 C 365.320312 466.519531 367.972656 469.171875 371.289062 469.171875 L 513.910156 469.171875 C 517.226562 469.171875 519.878906 466.519531 519.878906 463.203125 L 519.878906 440.796875 C 581.644531 412.789062 620.925781 352.71875 620.925781 284.910156 C 620.925781 281.59375 618.273438 278.941406 614.957031 278.941406 Z M 377.1875 457.234375 L 377.1875 445.367188 L 507.71875 445.367188 L 508.011719 457.234375 Z M 506.464844 433.425781 L 378.660156 433.425781 C 318.222656 409.914062 278.570312 354.488281 276.285156 290.808594 L 608.914062 290.808594 C 606.554688 354.488281 566.902344 409.914062 506.464844 433.425781 Z M 506.464844 433.425781 " fill-opacity="1" fill-rule="nonzero"/></g><path fill="#d6934c" d="M 439.464844 414.191406 C 440.570312 415.148438 441.972656 415.589844 443.300781 415.589844 C 444.699219 415.589844 446.101562 415.074219 447.28125 414.117188 C 451.113281 410.726562 484.574219 380.875 490.617188 371 C 501.597656 353.308594 501.230469 335.914062 489.734375 324.417969 C 476.980469 311.667969 456.492188 311.296875 443.300781 323.238281 C 430.105469 311.296875 409.617188 311.667969 396.867188 324.417969 C 385.074219 336.210938 384.777344 354.121094 396.128906 371.144531 C 405.710938 385.738281 438.066406 413.085938 439.464844 414.191406 Z M 405.269531 332.820312 C 409.542969 328.542969 415.144531 326.40625 420.671875 326.40625 C 426.273438 326.40625 431.875 328.542969 436.078125 332.820312 C 436.664062 333.410156 437.328125 334.367188 438.140625 335.769531 C 440.277344 339.378906 446.246094 339.378906 448.386719 335.769531 C 449.195312 334.367188 449.859375 333.410156 450.449219 332.820312 C 458.925781 324.269531 472.78125 324.34375 481.332031 332.820312 C 491.871094 343.359375 484.277344 358.691406 480.445312 364.734375 C 476.910156 370.484375 457.15625 389.128906 443.152344 401.734375 C 434.234375 393.996094 412.785156 374.980469 405.929688 364.585938 C 402.910156 360.015625 393.917969 344.242188 405.269531 332.820312 Z M 405.269531 332.820312 " fill-opacity="1" fill-rule="nonzero"/><g clip-path="url(#4afa46de25)"><path fill="#d6934c" d="M 625.71875 196.910156 C 621.148438 192.484375 615.179688 190.203125 608.839844 190.496094 L 496.882812 194.769531 C 488.847656 180.765625 472.632812 171.921875 454.503906 171.921875 C 428.261719 171.921875 406.964844 190.570312 406.964844 213.566406 C 406.964844 236.5625 428.261719 255.207031 454.503906 255.207031 C 472.707031 255.207031 488.847656 246.363281 496.882812 232.359375 L 608.765625 236.636719 C 615.179688 236.929688 621.074219 234.570312 625.644531 230.222656 C 630.214844 225.800781 632.71875 219.902344 632.71875 213.566406 C 632.71875 207.226562 630.289062 201.257812 625.71875 196.910156 Z M 617.464844 221.597656 C 615.253906 223.738281 612.378906 224.84375 609.28125 224.695312 L 493.566406 220.273438 C 491.058594 220.125 488.921875 221.597656 487.890625 223.8125 C 482.730469 235.457031 469.316406 243.269531 454.503906 243.269531 C 434.824219 243.269531 418.828125 229.929688 418.828125 213.566406 C 418.828125 197.203125 434.824219 183.863281 454.503906 183.863281 C 469.316406 183.863281 482.730469 191.675781 487.890625 203.320312 C 488.847656 205.53125 491.058594 207.007812 493.566406 206.859375 L 609.28125 202.4375 C 612.378906 202.363281 615.253906 203.394531 617.464844 205.53125 C 619.675781 207.667969 620.925781 210.542969 620.925781 213.640625 C 620.925781 216.734375 619.675781 219.460938 617.464844 221.597656 Z M 617.464844 221.597656 " fill-opacity="1" fill-rule="nonzero"/></g><g mask="url(#7b7f62d4f2)"><g transform="matrix(1, 0, 0, 1, 176, 370)"><g clip-path="url(#aacb5a2115)"><g fill="#d6934c" fill-opacity="1"><g transform="translate(0.854492, 100.342708)"><g><path d="M 27.875 -24.40625 L 18.40625 1.46875 L 5.328125 -2.40625 L 43.21875 -96.828125 L 56.15625 -94.96875 L 90.6875 -0.40625 L 71.21875 2.53125 L 63.890625 -23.078125 Z M 47.875 -78.03125 L 30.8125 -32.40625 L 60.953125 -33.078125 Z M 47.875 -78.03125 "/></g></g></g><g fill="#d6934c" fill-opacity="1"><g transform="translate(92.744543, 100.342708)"><g/></g></g><g fill="#d6934c" fill-opacity="1"><g transform="translate(0.854492, 221.303997)"><g><path d="M 40.953125 1.734375 C 36.054688 1.734375 31.453125 0.800781 27.140625 -1.0625 C 22.828125 -2.9375 19.046875 -5.492188 15.796875 -8.734375 C 12.554688 -11.984375 10 -15.785156 8.125 -20.140625 C 6.257812 -24.492188 5.328125 -29.117188 5.328125 -34.015625 C 5.328125 -38.898438 6.257812 -43.5 8.125 -47.8125 C 10 -52.125 12.554688 -55.898438 15.796875 -59.140625 C 19.046875 -62.390625 22.828125 -64.945312 27.140625 -66.8125 C 31.453125 -68.6875 36.054688 -69.625 40.953125 -69.625 C 47.972656 -69.625 54.304688 -67.773438 59.953125 -64.078125 C 65.597656 -60.390625 69.890625 -55.613281 72.828125 -49.75 L 62.953125 -43.078125 C 61.085938 -46.191406 58.578125 -48.722656 55.421875 -50.671875 C 52.265625 -52.628906 48.726562 -53.609375 44.8125 -53.609375 C 40.988281 -53.609375 37.472656 -52.675781 34.265625 -50.8125 C 31.066406 -48.945312 28.507812 -46.410156 26.59375 -43.203125 C 24.6875 -40.003906 23.734375 -36.453125 23.734375 -32.546875 C 23.734375 -28.722656 24.6875 -25.234375 26.59375 -22.078125 C 28.507812 -18.921875 31.066406 -16.40625 34.265625 -14.53125 C 37.472656 -12.664062 40.988281 -11.734375 44.8125 -11.734375 C 48.726562 -11.734375 52.285156 -12.6875 55.484375 -14.59375 C 58.679688 -16.507812 61.171875 -19.070312 62.953125 -22.28125 L 73.484375 -19.46875 C 70.734375 -13.25 66.445312 -8.160156 60.625 -4.203125 C 54.800781 -0.242188 48.242188 1.734375 40.953125 1.734375 Z M 40.953125 1.734375 "/></g></g></g><g fill="#d6934c" fill-opacity="1"><g transform="translate(75.531875, 221.303997)"><g><path d="M 40.953125 1.875 C 36.054688 1.875 31.453125 0.941406 27.140625 -0.921875 C 22.828125 -2.796875 19.046875 -5.351562 15.796875 -8.59375 C 12.554688 -11.84375 10 -15.625 8.125 -19.9375 C 6.257812 -24.25 5.328125 -28.851562 5.328125 -33.75 C 5.328125 -38.726562 6.257812 -43.347656 8.125 -47.609375 C 10 -51.878906 12.554688 -55.660156 15.796875 -58.953125 C 19.046875 -62.242188 22.828125 -64.800781 27.140625 -66.625 C 31.453125 -68.445312 36.054688 -69.359375 40.953125 -69.359375 C 45.835938 -69.359375 50.4375 -68.445312 54.75 -66.625 C 59.0625 -64.800781 62.835938 -62.242188 66.078125 -58.953125 C 69.328125 -55.660156 71.882812 -51.878906 73.75 -47.609375 C 75.625 -43.347656 76.5625 -38.726562 76.5625 -33.75 C 76.5625 -28.851562 75.625 -24.25 73.75 -19.9375 C 71.882812 -15.625 69.328125 -11.84375 66.078125 -8.59375 C 62.835938 -5.351562 59.0625 -2.796875 54.75 -0.921875 C 50.4375 0.941406 45.835938 1.875 40.953125 1.875 Z M 43.34375 -14.140625 C 47.4375 -14.140625 51.128906 -15.113281 54.421875 -17.0625 C 57.710938 -19.019531 60.359375 -21.664062 62.359375 -25 C 64.359375 -28.34375 65.359375 -32.015625 65.359375 -36.015625 C 65.359375 -40.097656 64.359375 -43.804688 62.359375 -47.140625 C 60.359375 -50.484375 57.710938 -53.128906 54.421875 -55.078125 C 51.128906 -57.035156 47.4375 -58.015625 43.34375 -58.015625 C 39.34375 -58.015625 35.675781 -57.035156 32.34375 -55.078125 C 29.007812 -53.128906 26.34375 -50.484375 24.34375 -47.140625 C 22.34375 -43.804688 21.34375 -40.097656 21.34375 -36.015625 C 21.34375 -32.015625 22.34375 -28.34375 24.34375 -25 C 26.34375 -21.664062 29.007812 -19.019531 32.34375 -17.0625 C 35.675781 -15.113281 39.34375 -14.140625 43.34375 -14.140625 Z M 43.34375 -14.140625 "/></g></g></g><g fill="#d6934c" fill-opacity="1"><g transform="translate(153.276392, 221.303997)"><g><path d="M 112.703125 -43.078125 L 116.171875 4.53125 L 96.828125 2.40625 L 97.5 -37.484375 C 97.675781 -42.816406 97.070312 -46.835938 95.6875 -49.546875 C 94.3125 -52.253906 92.601562 -54.050781 90.5625 -54.9375 C 88.519531 -55.832031 86.5625 -56.28125 84.6875 -56.28125 C 80.957031 -56.28125 77.757812 -55.367188 75.09375 -53.546875 C 72.425781 -51.722656 70.445312 -49.410156 69.15625 -46.609375 C 67.863281 -43.804688 67.265625 -40.851562 67.359375 -37.75 L 69.359375 -0.40625 L 50.015625 1.875 L 51.890625 -34.8125 C 52.066406 -37.476562 51.882812 -40.253906 51.34375 -43.140625 C 50.8125 -46.035156 49.65625 -48.503906 47.875 -50.546875 C 46.101562 -52.585938 43.304688 -53.609375 39.484375 -53.609375 C 36.273438 -53.703125 33.425781 -52.878906 30.9375 -51.140625 C 28.445312 -49.410156 26.535156 -47.164062 25.203125 -44.40625 C 23.867188 -41.65625 23.25 -38.722656 23.34375 -35.609375 L 24.28125 -1.203125 L 6.796875 4 L 6.671875 -70.015625 L 22.40625 -67.890625 L 22.8125 -55.75 C 25.03125 -58.863281 27.804688 -61.332031 31.140625 -63.15625 C 34.472656 -64.976562 38.050781 -65.890625 41.875 -65.890625 C 46.675781 -65.890625 50.96875 -64.820312 54.75 -62.6875 C 58.53125 -60.550781 61.53125 -57.347656 63.75 -53.078125 C 65.800781 -57.796875 68.828125 -61.578125 72.828125 -64.421875 C 76.828125 -67.265625 81.359375 -68.6875 86.421875 -68.6875 C 93.535156 -68.6875 99.535156 -66.53125 104.421875 -62.21875 C 109.316406 -57.90625 112.078125 -51.523438 112.703125 -43.078125 Z M 112.703125 -43.078125 "/></g></g></g><g fill="#d6934c" fill-opacity="1"><g transform="translate(271.693723, 221.303997)"><g><path d="M 40.140625 1.734375 C 33.742188 1.734375 27.875 0.175781 22.53125 -2.9375 C 17.195312 -6.050781 12.953125 -10.25 9.796875 -15.53125 C 6.640625 -20.820312 5.0625 -26.710938 5.0625 -33.203125 C 5.0625 -38.097656 5.972656 -42.675781 7.796875 -46.9375 C 9.617188 -51.207031 12.128906 -54.96875 15.328125 -58.21875 C 18.535156 -61.46875 22.269531 -64.003906 26.53125 -65.828125 C 30.800781 -67.648438 35.335938 -68.5625 40.140625 -68.5625 C 45.035156 -68.5625 49.59375 -67.648438 53.8125 -65.828125 C 58.039062 -64.003906 61.773438 -61.46875 65.015625 -58.21875 C 68.265625 -54.96875 70.800781 -51.207031 72.625 -46.9375 C 74.445312 -42.675781 75.359375 -38.097656 75.359375 -33.203125 C 75.359375 -31.253906 75.179688 -29.429688 74.828125 -27.734375 L 24.140625 -18.140625 C 26.179688 -15.472656 28.757812 -13.316406 31.875 -11.671875 C 34.988281 -10.023438 38.367188 -9.203125 42.015625 -9.203125 C 45.128906 -9.203125 48.039062 -9.800781 50.75 -11 C 53.457031 -12.195312 55.789062 -13.773438 57.75 -15.734375 L 65.21875 -9.46875 C 62.019531 -5.914062 58.328125 -3.160156 54.140625 -1.203125 C 49.960938 0.753906 45.296875 1.734375 40.140625 1.734375 Z M 20.546875 -27.46875 L 61.359375 -40.015625 C 59.660156 -43.484375 57.078125 -46.304688 53.609375 -48.484375 C 50.148438 -50.660156 46.285156 -51.75 42.015625 -51.75 C 37.835938 -51.75 33.945312 -50.613281 30.34375 -48.34375 C 26.738281 -46.082031 23.976562 -43.101562 22.0625 -39.40625 C 20.15625 -35.71875 19.648438 -31.738281 20.546875 -27.46875 Z M 20.546875 -27.46875 "/></g></g></g><g fill="#d6934c" fill-opacity="1"><g transform="translate(347.838008, 221.303997)"><g><path d="M 24 -42.546875 L 25.203125 -1.328125 L 6.671875 -4.265625 L 8.265625 -64.6875 L 23.34375 -68.6875 L 23.46875 -62.6875 C 26.132812 -65.257812 29.359375 -67.234375 33.140625 -68.609375 C 36.921875 -69.992188 41.210938 -70.6875 46.015625 -70.6875 C 49.835938 -70.6875 53.367188 -70.21875 56.609375 -69.28125 C 59.859375 -68.351562 62.953125 -67 65.890625 -65.21875 L 53.34375 -50.8125 C 51.125 -53.394531 48.925781 -55.21875 46.75 -56.28125 C 44.570312 -57.351562 42.015625 -57.890625 39.078125 -57.890625 C 36.941406 -57.890625 34.671875 -57.332031 32.265625 -56.21875 C 29.867188 -55.101562 27.867188 -53.429688 26.265625 -51.203125 C 24.671875 -48.984375 23.914062 -46.097656 24 -42.546875 Z M 24 -42.546875 "/></g></g></g><g fill="#d6934c" fill-opacity="1"><g transform="translate(414.247457, 221.303997)"><g><path d="M 22 -34.140625 L 8.671875 -31.34375 L 6 -93.359375 L 24.546875 -96.15625 Z M 15.078125 0 C 12.585938 0 10.429688 -0.929688 8.609375 -2.796875 C 6.785156 -4.671875 5.875 -6.894531 5.875 -9.46875 C 5.875 -12.050781 6.785156 -14.226562 8.609375 -16 C 10.429688 -17.78125 12.585938 -18.671875 15.078125 -18.671875 C 17.648438 -18.671875 19.867188 -17.78125 21.734375 -16 C 23.609375 -14.226562 24.546875 -12.050781 24.546875 -9.46875 C 24.546875 -6.894531 23.609375 -4.671875 21.734375 -2.796875 C 19.867188 -0.929688 17.648438 0 15.078125 0 Z M 15.078125 0 "/></g></g></g></g></g></g></svg>