<svg xmlns="http://www.w3.org/2000/svg" xmlns:xlink="http://www.w3.org/1999/xlink" width="500" zoomAndPan="magnify" viewBox="0 0 375 374.999991" height="500" preserveAspectRatio="xMidYMid meet" version="1.0"><defs><g/><clipPath id="24475263cd"><path d="M 59 61 L 316 61 L 316 314 L 59 314 Z M 59 61 " clip-rule="nonzero"/></clipPath><clipPath id="5e0593782f"><path d="M 56.632812 60.355469 L 56.632812 314.644531 C 56.632812 315.886719 57.640625 316.894531 58.882812 316.894531 L 316.117188 316.894531 C 317.359375 316.894531 318.367188 315.886719 318.367188 314.644531 L 318.367188 60.355469 C 318.367188 59.109375 317.359375 58.105469 316.117188 58.105469 L 58.882812 58.105469 C 57.640625 58.105469 56.632812 59.109375 56.632812 60.355469 Z M 56.632812 60.355469 " clip-rule="nonzero"/></clipPath><clipPath id="d0d4b4a98f"><path d="M 275 175 L 298 175 L 298 200 L 275 200 Z M 275 175 " clip-rule="nonzero"/></clipPath><clipPath id="c0592e2b35"><path d="M 274.171875 176.441406 L 296.628906 175.003906 L 298.113281 198.207031 L 275.660156 199.644531 Z M 274.171875 176.441406 " clip-rule="nonzero"/></clipPath><clipPath id="635e30f8cc"><path d="M 274.171875 176.441406 L 296.628906 175.003906 L 298.113281 198.207031 L 275.660156 199.644531 Z M 274.171875 176.441406 " clip-rule="nonzero"/></clipPath><clipPath id="15eb0d2f00"><path d="M 283 185 L 289 185 L 289 191 L 283 191 Z M 283 185 " clip-rule="nonzero"/></clipPath><clipPath id="2ead73dbd8"><path d="M 274.171875 176.441406 L 296.628906 175.003906 L 298.113281 198.207031 L 275.660156 199.644531 Z M 274.171875 176.441406 " clip-rule="nonzero"/></clipPath><clipPath id="c87ad9258a"><path d="M 274.171875 176.441406 L 296.628906 175.003906 L 298.113281 198.207031 L 275.660156 199.644531 Z M 274.171875 176.441406 " clip-rule="nonzero"/></clipPath><clipPath id="4a014a1e65"><path d="M 78 175 L 101 175 L 101 200 L 78 200 Z M 78 175 " clip-rule="nonzero"/></clipPath><clipPath id="408395a6d5"><path d="M 77.023438 176.441406 L 99.476562 175.003906 L 100.964844 198.207031 L 78.507812 199.644531 Z M 77.023438 176.441406 " clip-rule="nonzero"/></clipPath><clipPath id="6cde63e200"><path d="M 77.023438 176.441406 L 99.476562 175.003906 L 100.964844 198.207031 L 78.507812 199.644531 Z M 77.023438 176.441406 " clip-rule="nonzero"/></clipPath><clipPath id="af9bd7a54b"><path d="M 86 185 L 92 185 L 92 191 L 86 191 Z M 86 185 " clip-rule="nonzero"/></clipPath><clipPath id="240205abe7"><path d="M 77.023438 176.441406 L 99.476562 175.003906 L 100.964844 198.207031 L 78.507812 199.644531 Z M 77.023438 176.441406 " clip-rule="nonzero"/></clipPath><clipPath id="988c8d10e3"><path d="M 77.023438 176.441406 L 99.476562 175.003906 L 100.964844 198.207031 L 78.507812 199.644531 Z M 77.023438 176.441406 " clip-rule="nonzero"/></clipPath></defs><g clip-path="url(#24475263cd)"><g clip-path="url(#5e0593782f)"><path fill="#efd0c9" d="M 284.25 264.417969 C 272.179688 268.488281 257.949219 281.136719 252.488281 292.644531 C 247.027344 304.152344 232.722656 310.410156 220.566406 306.609375 C 208.410156 302.8125 189.460938 304.679688 178.277344 310.777344 C 167.097656 316.878906 151.847656 313.535156 144.242188 303.3125 C 136.640625 293.097656 120.214844 283.46875 107.582031 281.832031 C 94.949219 280.191406 84.578125 268.523438 84.433594 255.789062 C 84.292969 243.050781 76.660156 225.605469 67.402344 216.855469 C 58.148438 208.105469 56.613281 192.570312 63.984375 182.179688 C 71.355469 171.792969 75.433594 153.195312 73.089844 140.675781 C 70.742188 128.15625 78.636719 114.6875 90.707031 110.613281 C 102.773438 106.539062 117.007812 93.894531 122.464844 82.386719 C 127.925781 70.878906 142.230469 64.621094 154.390625 68.417969 C 166.546875 72.21875 185.496094 70.351562 196.675781 64.25 C 207.859375 58.152344 223.109375 61.496094 230.710938 71.714844 C 238.3125 81.933594 254.742188 91.5625 267.371094 93.199219 C 280.003906 94.839844 290.375 106.507812 290.519531 119.242188 C 290.664062 131.980469 298.292969 149.421875 307.550781 158.171875 C 316.808594 166.921875 318.339844 182.460938 310.96875 192.847656 C 303.597656 203.238281 299.519531 221.835938 301.867188 234.355469 C 304.210938 246.875 296.316406 260.34375 284.25 264.417969 Z M 284.25 264.417969 " fill-opacity="1" fill-rule="nonzero"/></g></g><g fill="#03676b" fill-opacity="1"><g transform="translate(108.524626, 200.373915)"><g><path d="M 10.765625 -26.546875 C 11.378906 -26.546875 11.6875 -26.242188 11.6875 -25.640625 L 11.6875 11.953125 C 11.6875 12.273438 11.578125 12.546875 11.359375 12.765625 C 11.140625 12.984375 10.867188 13.09375 10.546875 13.09375 L 1.359375 13.09375 C 1.960938 12.976562 2.476562 12.625 2.90625 12.03125 C 3.34375 11.4375 3.5625 10.796875 3.5625 10.109375 L 3.5625 -22.21875 C 3.5625 -22.90625 3.34375 -23.546875 2.90625 -24.140625 C 2.476562 -24.734375 1.960938 -25.085938 1.359375 -25.203125 L 10.59375 -26.546875 Z M 15.578125 -26.546875 C 17.054688 -26.691406 18.53125 -26.503906 20 -25.984375 C 21.476562 -25.460938 22.800781 -24.640625 23.96875 -23.515625 C 25.144531 -22.398438 26.101562 -21.03125 26.84375 -19.40625 C 27.582031 -17.789062 27.953125 -15.972656 27.953125 -13.953125 C 27.953125 -11.972656 27.671875 -10.210938 27.109375 -8.671875 C 26.554688 -7.140625 25.820312 -5.804688 24.90625 -4.671875 C 23.988281 -3.535156 22.953125 -2.570312 21.796875 -1.78125 C 20.640625 -0.988281 19.46875 -0.316406 18.28125 0.234375 C 17.09375 0.796875 15.9375 1.253906 14.8125 1.609375 C 13.695312 1.972656 12.742188 2.285156 11.953125 2.546875 C 12.890625 2.035156 13.832031 1.363281 14.78125 0.53125 C 15.738281 -0.289062 16.597656 -1.332031 17.359375 -2.59375 C 18.117188 -3.851562 18.738281 -5.363281 19.21875 -7.125 C 19.707031 -8.894531 19.953125 -11.007812 19.953125 -13.46875 C 19.953125 -15.125 19.78125 -16.695312 19.4375 -18.1875 C 19.09375 -19.6875 18.632812 -21.003906 18.0625 -22.140625 C 17.488281 -23.273438 16.8125 -24.175781 16.03125 -24.84375 C 15.257812 -25.507812 14.421875 -25.84375 13.515625 -25.84375 C 12.941406 -25.84375 12.421875 -25.738281 11.953125 -25.53125 C 12.921875 -26.03125 14.128906 -26.367188 15.578125 -26.546875 Z M 15.578125 -26.546875 "/></g></g></g><g fill="#03676b" fill-opacity="1"><g transform="translate(136.317683, 200.373915)"><g><path d="M 18.609375 -27.640625 C 19.753906 -27.566406 20.742188 -27.140625 21.578125 -26.359375 C 22.410156 -25.585938 22.828125 -24.625 22.828125 -23.46875 C 22.828125 -22.3125 22.410156 -21.316406 21.578125 -20.484375 C 20.742188 -19.660156 19.753906 -19.25 18.609375 -19.25 C 18.023438 -19.25 17.476562 -19.359375 16.96875 -19.578125 C 16.46875 -19.796875 16.03125 -20.09375 15.65625 -20.46875 C 15.28125 -20.84375 14.984375 -21.289062 14.765625 -21.8125 C 14.546875 -22.34375 14.4375 -22.894531 14.4375 -23.46875 C 14.4375 -23.6875 14.472656 -23.972656 14.546875 -24.328125 C 14.722656 -25.054688 14.578125 -25.554688 14.109375 -25.828125 C 13.640625 -26.097656 12.882812 -25.976562 11.84375 -25.46875 C 12.3125 -25.71875 12.832031 -25.96875 13.40625 -26.21875 C 13.988281 -26.476562 14.578125 -26.710938 15.171875 -26.921875 C 15.765625 -27.140625 16.359375 -27.320312 16.953125 -27.46875 C 17.546875 -27.613281 18.097656 -27.671875 18.609375 -27.640625 Z M 11.6875 -2.96875 C 11.6875 -2.320312 11.898438 -1.691406 12.328125 -1.078125 C 12.765625 -0.460938 13.285156 -0.101562 13.890625 0 L 1.359375 0 C 1.960938 -0.101562 2.476562 -0.460938 2.90625 -1.078125 C 3.34375 -1.691406 3.5625 -2.320312 3.5625 -2.96875 L 3.5625 -22.21875 C 3.5625 -22.90625 3.34375 -23.546875 2.90625 -24.140625 C 2.476562 -24.734375 1.960938 -25.085938 1.359375 -25.203125 L 10.59375 -26.546875 L 10.765625 -26.546875 C 11.378906 -26.546875 11.6875 -26.242188 11.6875 -25.640625 Z M 11.6875 -2.96875 "/></g></g></g><g fill="#03676b" fill-opacity="1"><g transform="translate(158.973819, 200.373915)"><g><path d="M 7.1875 -15.203125 C 6.039062 -15.203125 5.0625 -15.601562 4.25 -16.40625 C 3.4375 -17.21875 3.03125 -18.203125 3.03125 -19.359375 C 3.03125 -20.265625 3.300781 -21.148438 3.84375 -22.015625 C 4.382812 -22.878906 5.085938 -23.648438 5.953125 -24.328125 C 6.816406 -25.015625 7.785156 -25.59375 8.859375 -26.0625 C 9.941406 -26.53125 11.023438 -26.820312 12.109375 -26.9375 C 11.140625 -26.789062 10.390625 -26.5 9.859375 -26.0625 C 9.335938 -25.632812 9.078125 -25.128906 9.078125 -24.546875 C 9.078125 -24.148438 9.1875 -23.765625 9.40625 -23.390625 C 9.625 -23.015625 9.894531 -22.625 10.21875 -22.21875 C 11.007812 -21.5 11.40625 -20.546875 11.40625 -19.359375 C 11.40625 -18.203125 10.988281 -17.21875 10.15625 -16.40625 C 9.332031 -15.601562 8.34375 -15.203125 7.1875 -15.203125 Z M 23.53125 -4.0625 C 23.53125 -3.40625 23.742188 -2.769531 24.171875 -2.15625 C 24.609375 -1.550781 25.128906 -1.191406 25.734375 -1.078125 L 16.4375 0.265625 L 16.328125 0.265625 C 16.046875 0.265625 15.8125 0.175781 15.625 0 C 15.445312 -0.175781 15.359375 -0.410156 15.359375 -0.703125 L 15.359375 -16.328125 C 14.921875 -16.109375 14.382812 -15.835938 13.75 -15.515625 C 13.125 -15.191406 12.515625 -14.757812 11.921875 -14.21875 C 11.328125 -13.675781 10.804688 -12.988281 10.359375 -12.15625 C 9.910156 -11.332031 9.628906 -10.289062 9.515625 -9.03125 C 9.410156 -7.726562 9.507812 -6.582031 9.8125 -5.59375 C 10.125 -4.601562 10.566406 -3.800781 11.140625 -3.1875 C 11.710938 -2.570312 12.394531 -2.140625 13.1875 -1.890625 C 13.988281 -1.640625 14.675781 -1.660156 15.25 -1.953125 C 14.601562 -1.484375 13.738281 -0.992188 12.65625 -0.484375 C 11.570312 0.015625 10.289062 0.265625 8.8125 0.265625 C 7.113281 0.265625 5.578125 -0.179688 4.203125 -1.078125 C 2.835938 -1.984375 1.957031 -3.191406 1.5625 -4.703125 C 1.132812 -6.253906 1.289062 -7.757812 2.03125 -9.21875 C 2.769531 -10.675781 3.894531 -11.875 5.40625 -12.8125 C 6.195312 -13.28125 7.160156 -13.738281 8.296875 -14.1875 C 9.429688 -14.644531 10.640625 -15.085938 11.921875 -15.515625 C 13.203125 -15.953125 14.472656 -16.382812 15.734375 -16.8125 C 16.992188 -17.25 18.140625 -17.71875 19.171875 -18.21875 C 20.203125 -18.726562 21.050781 -19.269531 21.71875 -19.84375 C 22.382812 -20.425781 22.734375 -21.078125 22.765625 -21.796875 C 22.804688 -22.222656 22.722656 -22.679688 22.515625 -23.171875 C 22.316406 -23.660156 22.039062 -24.101562 21.6875 -24.5 C 22.65625 -23.5625 23.25 -22.476562 23.46875 -21.25 C 23.507812 -21.101562 23.53125 -20.957031 23.53125 -20.8125 C 23.53125 -20.675781 23.53125 -20.535156 23.53125 -20.390625 Z M 23.53125 -4.0625 "/></g></g></g><g fill="#03676b" fill-opacity="1"><g transform="translate(184.549895, 200.373915)"><g><path d="M 11.6875 -2.96875 C 11.6875 -2.320312 11.898438 -1.691406 12.328125 -1.078125 C 12.765625 -0.460938 13.285156 -0.101562 13.890625 0 L 1.359375 0 C 1.960938 -0.101562 2.476562 -0.460938 2.90625 -1.078125 C 3.34375 -1.691406 3.5625 -2.320312 3.5625 -2.96875 L 3.5625 -33.53125 C 3.5625 -34.175781 3.34375 -34.804688 2.90625 -35.421875 C 2.476562 -36.035156 1.960938 -36.394531 1.359375 -36.5 L 10.59375 -37.859375 L 10.765625 -37.859375 C 11.046875 -37.859375 11.269531 -37.765625 11.4375 -37.578125 C 11.601562 -37.398438 11.6875 -37.164062 11.6875 -36.875 Z M 11.6875 -2.96875 "/></g></g></g><g fill="#03676b" fill-opacity="1"><g transform="translate(198.283996, 200.373915)"><g><path d="M 11.6875 -2.96875 C 11.6875 -2.320312 11.898438 -1.691406 12.328125 -1.078125 C 12.765625 -0.460938 13.285156 -0.101562 13.890625 0 L 1.359375 0 C 1.960938 -0.101562 2.476562 -0.460938 2.90625 -1.078125 C 3.34375 -1.691406 3.5625 -2.320312 3.5625 -2.96875 L 3.5625 -22.21875 C 3.5625 -22.90625 3.34375 -23.546875 2.90625 -24.140625 C 2.476562 -24.734375 1.960938 -25.085938 1.359375 -25.203125 L 10.59375 -26.546875 L 10.765625 -26.546875 C 11.378906 -26.546875 11.6875 -26.242188 11.6875 -25.640625 Z M 7.625 -29.46875 C 6.46875 -29.46875 5.484375 -29.875 4.671875 -30.6875 C 3.867188 -31.5 3.46875 -32.484375 3.46875 -33.640625 C 3.46875 -34.785156 3.867188 -35.773438 4.671875 -36.609375 C 5.484375 -37.441406 6.46875 -37.859375 7.625 -37.859375 C 8.78125 -37.859375 9.769531 -37.441406 10.59375 -36.609375 C 11.425781 -35.773438 11.84375 -34.785156 11.84375 -33.640625 C 11.84375 -33.054688 11.734375 -32.507812 11.515625 -32 C 11.296875 -31.5 11 -31.0625 10.625 -30.6875 C 10.25 -30.3125 9.796875 -30.015625 9.265625 -29.796875 C 8.742188 -29.578125 8.195312 -29.46875 7.625 -29.46875 Z M 7.625 -29.46875 "/></g></g></g><g fill="#03676b" fill-opacity="1"><g transform="translate(212.018097, 200.373915)"><g><path d="M 11.6875 -15.796875 L 11.6875 -2.96875 C 11.6875 -2.320312 11.898438 -1.691406 12.328125 -1.078125 C 12.765625 -0.460938 13.285156 -0.101562 13.890625 0 L 1.359375 0 C 1.960938 -0.101562 2.476562 -0.460938 2.90625 -1.078125 C 3.34375 -1.691406 3.5625 -2.320312 3.5625 -2.96875 L 3.5625 -22.21875 C 3.5625 -22.90625 3.34375 -23.546875 2.90625 -24.140625 C 2.476562 -24.734375 1.960938 -25.085938 1.359375 -25.203125 L 10.59375 -26.546875 L 10.765625 -26.546875 C 11.378906 -26.546875 11.6875 -26.242188 11.6875 -25.640625 Z M 25.90625 -2.96875 C 25.90625 -2.320312 26.117188 -1.691406 26.546875 -1.078125 C 26.984375 -0.460938 27.507812 -0.101562 28.125 0 L 15.578125 0 C 16.191406 -0.101562 16.710938 -0.460938 17.140625 -1.078125 C 17.578125 -1.691406 17.796875 -2.320312 17.796875 -2.96875 L 17.796875 -18.921875 C 17.796875 -19.609375 17.9375 -20.1875 18.21875 -20.65625 C 18.507812 -21.125 18.832031 -21.546875 19.1875 -21.921875 C 19.550781 -22.304688 19.878906 -22.6875 20.171875 -23.0625 C 20.460938 -23.4375 20.609375 -23.878906 20.609375 -24.390625 C 20.609375 -25.003906 20.265625 -25.535156 19.578125 -25.984375 C 18.890625 -26.429688 18.003906 -26.65625 16.921875 -26.65625 C 15.773438 -26.65625 14.75 -26.507812 13.84375 -26.21875 C 12.9375 -25.9375 12.304688 -25.707031 11.953125 -25.53125 C 13.210938 -26.132812 14.644531 -26.585938 16.25 -26.890625 C 17.851562 -27.203125 19.375 -27.195312 20.8125 -26.875 C 22.257812 -26.550781 23.46875 -25.828125 24.4375 -24.703125 C 25.414062 -23.585938 25.90625 -21.914062 25.90625 -19.6875 Z M 25.90625 -2.96875 "/></g></g></g><g fill="#03676b" fill-opacity="1"><g transform="translate(239.973385, 200.373915)"><g><path d="M 8.765625 -28.65625 L 7.25 -28.9375 L 14.59375 -35.640625 L 19.3125 -34.875 L 19.3125 -34.5 Z M 18.390625 -3.1875 C 19.429688 -3.1875 20.457031 -3.445312 21.46875 -3.96875 C 22.476562 -4.5 23.363281 -5.234375 24.125 -6.171875 C 23.039062 -4.222656 21.578125 -2.660156 19.734375 -1.484375 C 17.898438 -0.316406 15.882812 0.265625 13.6875 0.265625 C 11.988281 0.265625 10.390625 -0.09375 8.890625 -0.8125 C 7.398438 -1.53125 6.09375 -2.5 4.96875 -3.71875 C 3.851562 -4.945312 2.972656 -6.390625 2.328125 -8.046875 C 1.679688 -9.710938 1.359375 -11.5 1.359375 -13.40625 C 1.359375 -15.28125 1.679688 -17.054688 2.328125 -18.734375 C 2.972656 -20.410156 3.851562 -21.863281 4.96875 -23.09375 C 6.09375 -24.320312 7.398438 -25.296875 8.890625 -26.015625 C 10.390625 -26.734375 11.988281 -27.09375 13.6875 -27.09375 C 13.320312 -27.019531 12.894531 -26.6875 12.40625 -26.09375 C 11.925781 -25.5 11.46875 -24.710938 11.03125 -23.734375 C 10.601562 -22.765625 10.234375 -21.640625 9.921875 -20.359375 C 9.617188 -19.078125 9.46875 -17.71875 9.46875 -16.28125 C 9.46875 -14.476562 9.703125 -12.78125 10.171875 -11.1875 C 10.640625 -9.601562 11.273438 -8.21875 12.078125 -7.03125 C 12.890625 -5.84375 13.835938 -4.90625 14.921875 -4.21875 C 16.003906 -3.53125 17.160156 -3.1875 18.390625 -3.1875 Z M 17.734375 -17.84375 C 17.734375 -18.925781 17.644531 -19.976562 17.46875 -21 C 17.289062 -22.03125 17.054688 -22.957031 16.765625 -23.78125 C 16.472656 -24.613281 16.117188 -25.316406 15.703125 -25.890625 C 15.296875 -26.472656 14.859375 -26.875 14.390625 -27.09375 C 15.753906 -26.988281 17.03125 -26.644531 18.21875 -26.0625 C 19.414062 -25.488281 20.484375 -24.734375 21.421875 -23.796875 C 22.359375 -22.859375 23.140625 -21.757812 23.765625 -20.5 C 24.398438 -19.238281 24.859375 -17.867188 25.140625 -16.390625 L 16.21875 -16.390625 C 16.613281 -16.390625 16.960938 -16.53125 17.265625 -16.8125 C 17.578125 -17.101562 17.734375 -17.445312 17.734375 -17.84375 Z M 17.734375 -17.84375 "/></g></g></g><g fill="#03676b" fill-opacity="1"><g transform="translate(148.927251, 282.447266)"><g><path d="M 3.578125 1.859375 C 3.128906 1.640625 2.753906 1.351562 2.453125 1 C 2.148438 0.644531 1.925781 0.257812 1.78125 -0.15625 C 1.632812 -0.582031 1.578125 -1.03125 1.609375 -1.5 C 1.648438 -1.976562 1.78125 -2.445312 2 -2.90625 C 2.226562 -3.375 2.523438 -3.765625 2.890625 -4.078125 C 3.253906 -4.398438 3.648438 -4.644531 4.078125 -4.8125 C 4.515625 -4.976562 4.960938 -5.050781 5.421875 -5.03125 C 5.890625 -5.007812 6.34375 -4.890625 6.78125 -4.671875 C 7.257812 -4.441406 7.65625 -4.125 7.96875 -3.71875 C 8.28125 -3.320312 8.503906 -2.882812 8.640625 -2.40625 L 7.921875 -2.234375 C 7.816406 -2.628906 7.640625 -2.976562 7.390625 -3.28125 C 7.140625 -3.59375 6.828125 -3.84375 6.453125 -4.03125 C 6.097656 -4.195312 5.738281 -4.285156 5.375 -4.296875 C 5.007812 -4.316406 4.660156 -4.265625 4.328125 -4.140625 C 4.003906 -4.015625 3.703125 -3.820312 3.421875 -3.5625 C 3.148438 -3.300781 2.921875 -2.984375 2.734375 -2.609375 C 2.546875 -2.222656 2.4375 -1.835938 2.40625 -1.453125 C 2.375 -1.078125 2.410156 -0.71875 2.515625 -0.375 C 2.628906 -0.0390625 2.804688 0.257812 3.046875 0.53125 C 3.285156 0.8125 3.582031 1.039062 3.9375 1.21875 C 4.332031 1.414062 4.734375 1.507812 5.140625 1.5 C 5.546875 1.5 5.921875 1.421875 6.265625 1.265625 L 6.546875 1.90625 C 6.078125 2.113281 5.585938 2.21875 5.078125 2.21875 C 4.578125 2.21875 4.078125 2.097656 3.578125 1.859375 Z M 3.578125 1.859375 "/></g></g></g><g fill="#03676b" fill-opacity="1"><g transform="translate(156.554447, 286.077078)"><g><path d="M 3.296875 -6.3125 L 4 -6.0625 L 2.921875 -3.09375 L 6.484375 -1.8125 L 7.5625 -4.78125 L 8.25 -4.515625 L 5.84375 2.125 L 5.15625 1.859375 L 6.25 -1.171875 L 2.6875 -2.453125 L 1.59375 0.578125 L 0.890625 0.328125 Z M 3.296875 -6.3125 "/></g></g></g><g fill="#03676b" fill-opacity="1"><g transform="translate(164.507912, 288.909587)"><g><path d="M 3.921875 1.0625 C 3.441406 0.945312 3.015625 0.742188 2.640625 0.453125 C 2.273438 0.171875 1.976562 -0.164062 1.75 -0.5625 C 1.519531 -0.957031 1.363281 -1.390625 1.28125 -1.859375 C 1.207031 -2.335938 1.226562 -2.820312 1.34375 -3.3125 C 1.457031 -3.789062 1.65625 -4.222656 1.9375 -4.609375 C 2.226562 -5.003906 2.566406 -5.320312 2.953125 -5.5625 C 3.335938 -5.8125 3.757812 -5.976562 4.21875 -6.0625 C 4.6875 -6.144531 5.160156 -6.128906 5.640625 -6.015625 C 6.097656 -5.898438 6.515625 -5.703125 6.890625 -5.421875 C 7.265625 -5.140625 7.566406 -4.796875 7.796875 -4.390625 C 8.023438 -3.992188 8.179688 -3.5625 8.265625 -3.09375 C 8.347656 -2.625 8.328125 -2.144531 8.203125 -1.65625 C 8.085938 -1.164062 7.882812 -0.726562 7.59375 -0.34375 C 7.3125 0.0390625 6.976562 0.351562 6.59375 0.59375 C 6.207031 0.84375 5.78125 1.007812 5.3125 1.09375 C 4.84375 1.1875 4.378906 1.175781 3.921875 1.0625 Z M 4.09375 0.34375 C 4.46875 0.4375 4.835938 0.453125 5.203125 0.390625 C 5.566406 0.328125 5.894531 0.195312 6.1875 0 C 6.488281 -0.195312 6.75 -0.453125 6.96875 -0.765625 C 7.1875 -1.078125 7.34375 -1.4375 7.4375 -1.84375 C 7.53125 -2.25 7.550781 -2.640625 7.5 -3.015625 C 7.445312 -3.390625 7.332031 -3.726562 7.15625 -4.03125 C 6.988281 -4.34375 6.757812 -4.609375 6.46875 -4.828125 C 6.175781 -5.046875 5.84375 -5.203125 5.46875 -5.296875 C 5.082031 -5.390625 4.707031 -5.40625 4.34375 -5.34375 C 3.988281 -5.28125 3.660156 -5.148438 3.359375 -4.953125 C 3.054688 -4.765625 2.796875 -4.515625 2.578125 -4.203125 C 2.359375 -3.890625 2.203125 -3.53125 2.109375 -3.125 C 2.015625 -2.71875 1.992188 -2.328125 2.046875 -1.953125 C 2.097656 -1.578125 2.210938 -1.234375 2.390625 -0.921875 C 2.566406 -0.609375 2.796875 -0.34375 3.078125 -0.125 C 3.367188 0.09375 3.707031 0.25 4.09375 0.34375 Z M 4.09375 0.34375 "/></g></g></g><g fill="#03676b" fill-opacity="1"><g transform="translate(173.656991, 291.019705)"><g><path d="M 3.984375 0.609375 C 3.484375 0.546875 3.035156 0.394531 2.640625 0.15625 C 2.242188 -0.0820312 1.90625 -0.375 1.625 -0.71875 C 1.351562 -1.070312 1.160156 -1.484375 1.046875 -1.953125 C 0.929688 -2.421875 0.90625 -2.898438 0.96875 -3.390625 C 1.03125 -3.910156 1.179688 -4.378906 1.421875 -4.796875 C 1.660156 -5.210938 1.957031 -5.566406 2.3125 -5.859375 C 2.675781 -6.160156 3.082031 -6.375 3.53125 -6.5 C 3.976562 -6.625 4.445312 -6.65625 4.9375 -6.59375 C 5.46875 -6.53125 5.941406 -6.359375 6.359375 -6.078125 C 6.773438 -5.804688 7.128906 -5.460938 7.421875 -5.046875 L 6.796875 -4.640625 C 6.566406 -4.992188 6.285156 -5.273438 5.953125 -5.484375 C 5.617188 -5.691406 5.242188 -5.820312 4.828125 -5.875 C 4.429688 -5.925781 4.054688 -5.898438 3.703125 -5.796875 C 3.359375 -5.703125 3.050781 -5.539062 2.78125 -5.3125 C 2.507812 -5.082031 2.28125 -4.800781 2.09375 -4.46875 C 1.914062 -4.132812 1.800781 -3.757812 1.75 -3.34375 C 1.6875 -2.925781 1.703125 -2.53125 1.796875 -2.15625 C 1.898438 -1.78125 2.054688 -1.445312 2.265625 -1.15625 C 2.484375 -0.875 2.75 -0.640625 3.0625 -0.453125 C 3.375 -0.273438 3.726562 -0.160156 4.125 -0.109375 C 4.570312 -0.0546875 4.984375 -0.09375 5.359375 -0.21875 C 5.734375 -0.34375 6.0625 -0.535156 6.34375 -0.796875 L 6.8125 -0.28125 C 6.4375 0.0507812 6.007812 0.300781 5.53125 0.46875 C 5.050781 0.632812 4.535156 0.679688 3.984375 0.609375 Z M 3.984375 0.609375 "/></g></g></g><g fill="#03676b" fill-opacity="1"><g transform="translate(182.059385, 292.041351)"><g><path d="M 4.0625 0.171875 C 3.570312 0.160156 3.113281 0.0546875 2.6875 -0.140625 C 2.257812 -0.335938 1.890625 -0.601562 1.578125 -0.9375 C 1.265625 -1.269531 1.019531 -1.65625 0.84375 -2.09375 C 0.664062 -2.539062 0.582031 -3.015625 0.59375 -3.515625 C 0.59375 -4.015625 0.691406 -4.484375 0.890625 -4.921875 C 1.085938 -5.367188 1.347656 -5.753906 1.671875 -6.078125 C 1.992188 -6.410156 2.367188 -6.664062 2.796875 -6.84375 C 3.222656 -7.03125 3.679688 -7.117188 4.171875 -7.109375 C 4.648438 -7.097656 5.101562 -6.992188 5.53125 -6.796875 C 5.96875 -6.609375 6.34375 -6.34375 6.65625 -6 C 6.96875 -5.664062 7.210938 -5.273438 7.390625 -4.828125 C 7.566406 -4.390625 7.65625 -3.914062 7.65625 -3.40625 C 7.644531 -2.90625 7.539062 -2.4375 7.34375 -2 C 7.144531 -1.570312 6.882812 -1.191406 6.5625 -0.859375 C 6.238281 -0.535156 5.859375 -0.28125 5.421875 -0.09375 C 4.992188 0.09375 4.539062 0.179688 4.0625 0.171875 Z M 4.078125 -0.5625 C 4.460938 -0.550781 4.820312 -0.613281 5.15625 -0.75 C 5.5 -0.894531 5.789062 -1.097656 6.03125 -1.359375 C 6.28125 -1.617188 6.476562 -1.921875 6.625 -2.265625 C 6.769531 -2.617188 6.847656 -3.003906 6.859375 -3.421875 C 6.859375 -3.835938 6.789062 -4.222656 6.65625 -4.578125 C 6.519531 -4.941406 6.332031 -5.253906 6.09375 -5.515625 C 5.863281 -5.773438 5.578125 -5.976562 5.234375 -6.125 C 4.898438 -6.28125 4.539062 -6.363281 4.15625 -6.375 C 3.757812 -6.382812 3.394531 -6.316406 3.0625 -6.171875 C 2.726562 -6.035156 2.4375 -5.835938 2.1875 -5.578125 C 1.9375 -5.316406 1.738281 -5.007812 1.59375 -4.65625 C 1.445312 -4.3125 1.375 -3.929688 1.375 -3.515625 C 1.363281 -3.097656 1.425781 -2.707031 1.5625 -2.34375 C 1.695312 -1.988281 1.882812 -1.679688 2.125 -1.421875 C 2.363281 -1.160156 2.648438 -0.953125 2.984375 -0.796875 C 3.316406 -0.648438 3.679688 -0.570312 4.078125 -0.5625 Z M 4.078125 -0.5625 "/></g></g></g><g fill="#03676b" fill-opacity="1"><g transform="translate(191.409798, 292.053165)"><g><path d="M 0.375 -7.125 L 1.109375 -7.1875 L 1.625 -0.828125 L 4.453125 -1.046875 L 4.515625 -0.359375 L 0.953125 -0.078125 Z M 0.375 -7.125 "/></g></g></g><g fill="#03676b" fill-opacity="1"><g transform="translate(197.600551, 291.525282)"><g><path d="M 1.75 -7.6875 L 1.96875 -7.71875 L 5.828125 -0.96875 L 5.03125 -0.84375 L 4.0625 -2.5625 L 1.40625 -2.109375 L 1.078125 -0.1875 L 0.3125 -0.046875 Z M 3.703125 -3.203125 L 2.125 -6.03125 L 1.546875 -2.84375 Z M 3.703125 -3.203125 "/></g></g></g><g fill="#03676b" fill-opacity="1"><g transform="translate(204.929578, 290.239873)"><g><path d="M 0.9375 -6.84375 L -1.3125 -6.25 L -1.5 -6.90625 L 3.71875 -8.28125 L 3.90625 -7.625 L 1.65625 -7.03125 L 3.265625 -0.859375 L 2.546875 -0.671875 Z M 0.9375 -6.84375 "/></g></g></g><g fill="#03676b" fill-opacity="1"><g transform="translate(211.89027, 288.34531)"><g><path d="M -1.46875 -6.96875 L 1.96875 -8.1875 L 2.1875 -7.53125 L -0.546875 -6.5625 L 0.25 -4.34375 L 2.34375 -5.09375 L 2.578125 -4.453125 L 0.484375 -3.703125 L 1.359375 -1.203125 L 4.140625 -2.1875 L 4.375 -1.546875 L 0.890625 -0.3125 Z M -1.46875 -6.96875 "/></g></g></g><g fill="#03676b" fill-opacity="1"><g transform="translate(217.966297, 286.137014)"><g><path d="M 2.453125 -0.984375 C 2.023438 -0.796875 1.578125 -0.722656 1.109375 -0.765625 C 0.648438 -0.804688 0.207031 -0.960938 -0.21875 -1.234375 L 0.125 -1.90625 C 0.875 -1.425781 1.5625 -1.328125 2.1875 -1.609375 C 2.570312 -1.773438 2.832031 -2.015625 2.96875 -2.328125 C 3.101562 -2.640625 3.097656 -2.960938 2.953125 -3.296875 C 2.816406 -3.585938 2.597656 -3.789062 2.296875 -3.90625 C 1.992188 -4.03125 1.566406 -4.085938 1.015625 -4.078125 C 0.335938 -4.035156 -0.195312 -4.101562 -0.59375 -4.28125 C -0.988281 -4.46875 -1.28125 -4.769531 -1.46875 -5.1875 C -1.582031 -5.4375 -1.640625 -5.679688 -1.640625 -5.921875 C -1.648438 -6.171875 -1.613281 -6.398438 -1.53125 -6.609375 C -1.445312 -6.828125 -1.316406 -7.023438 -1.140625 -7.203125 C -0.960938 -7.378906 -0.738281 -7.53125 -0.46875 -7.65625 C 0.257812 -7.976562 1.015625 -7.921875 1.796875 -7.484375 L 1.484375 -6.8125 C 1.160156 -7.007812 0.863281 -7.117188 0.59375 -7.140625 C 0.320312 -7.171875 0.0546875 -7.128906 -0.203125 -7.015625 C -0.523438 -6.867188 -0.738281 -6.660156 -0.84375 -6.390625 C -0.957031 -6.128906 -0.953125 -5.851562 -0.828125 -5.5625 C -0.691406 -5.257812 -0.484375 -5.050781 -0.203125 -4.9375 C 0.078125 -4.820312 0.488281 -4.78125 1.03125 -4.8125 C 1.71875 -4.84375 2.265625 -4.765625 2.671875 -4.578125 C 3.085938 -4.398438 3.394531 -4.09375 3.59375 -3.65625 C 3.707031 -3.394531 3.769531 -3.128906 3.78125 -2.859375 C 3.789062 -2.597656 3.738281 -2.347656 3.625 -2.109375 C 3.519531 -1.867188 3.367188 -1.648438 3.171875 -1.453125 C 2.984375 -1.265625 2.742188 -1.109375 2.453125 -0.984375 Z M 2.453125 -0.984375 "/></g></g></g><g fill="#03676b" fill-opacity="1"><g transform="translate(223.814913, 283.424955)"><g/></g></g><g clip-path="url(#d0d4b4a98f)"><g clip-path="url(#c0592e2b35)"><g clip-path="url(#635e30f8cc)"><path fill="#03676b" d="M 275.625 192.808594 C 275.988281 193.425781 276.71875 193.722656 277.398438 193.816406 C 277.785156 193.871094 278.179688 193.859375 278.566406 193.816406 C 278.972656 193.773438 279.375 193.683594 279.765625 193.5625 C 280.558594 193.316406 281.300781 192.933594 282.003906 192.492188 C 282.703125 192.046875 283.367188 191.539062 283.996094 191 C 284.039062 190.964844 284.082031 190.929688 284.121094 190.894531 C 283.902344 191.429688 283.71875 191.976562 283.574219 192.535156 C 283.402344 193.183594 283.285156 193.84375 283.21875 194.511719 C 283.183594 194.863281 283.164062 195.222656 283.15625 195.578125 C 283.148438 195.925781 283.148438 196.277344 283.183594 196.625 C 283.207031 196.835938 283.246094 197.046875 283.3125 197.246094 C 283.355469 197.371094 283.414062 197.492188 283.480469 197.605469 C 283.488281 197.636719 283.496094 197.664062 283.507812 197.695312 C 283.53125 197.75 283.5625 197.804688 283.59375 197.859375 C 283.664062 197.992188 283.761719 198.101562 283.859375 198.214844 C 284.082031 198.46875 284.316406 198.71875 284.597656 198.917969 C 284.730469 199.011719 284.875 199.097656 285.027344 199.164062 C 285.113281 199.203125 285.203125 199.234375 285.296875 199.261719 C 285.363281 199.28125 285.429688 199.296875 285.5 199.308594 C 285.609375 199.324219 285.726562 199.332031 285.839844 199.328125 C 285.859375 199.328125 285.882812 199.328125 285.90625 199.328125 C 286.082031 199.328125 286.25 199.300781 286.421875 199.261719 C 286.550781 199.230469 286.675781 199.191406 286.792969 199.136719 C 286.796875 199.136719 286.796875 199.136719 286.800781 199.132812 C 287.15625 199.03125 287.488281 198.847656 287.769531 198.609375 C 288.082031 198.339844 288.328125 198 288.515625 197.632812 C 288.886719 196.917969 289.023438 196.09375 289.050781 195.292969 C 289.078125 194.503906 288.988281 193.710938 288.800781 192.941406 C 288.613281 192.164062 288.332031 191.410156 287.988281 190.6875 C 287.898438 190.5 287.804688 190.316406 287.707031 190.132812 C 288.230469 190.613281 288.753906 191.097656 289.277344 191.578125 C 289.949219 192.191406 290.613281 192.820312 291.367188 193.332031 C 292.085938 193.824219 292.890625 194.210938 293.757812 194.347656 C 294.175781 194.414062 294.605469 194.425781 295.019531 194.355469 C 295.433594 194.285156 295.820312 194.148438 296.179688 193.9375 C 296.742188 193.617188 297.214844 193.101562 297.449219 192.492188 C 297.570312 192.257812 297.648438 192.003906 297.65625 191.738281 C 297.675781 191.324219 297.546875 190.933594 297.332031 190.582031 C 297.128906 190.242188 296.84375 189.953125 296.539062 189.699219 C 296.199219 189.417969 295.820312 189.179688 295.4375 188.964844 C 294.644531 188.519531 293.789062 188.214844 292.910156 187.996094 C 292.265625 187.839844 291.605469 187.734375 290.941406 187.671875 C 291.191406 187.617188 291.441406 187.554688 291.6875 187.484375 C 292.515625 187.253906 293.320312 186.945312 294.074219 186.527344 C 294.8125 186.117188 295.542969 185.621094 296.050781 184.933594 C 296.300781 184.597656 296.492188 184.21875 296.582031 183.8125 C 296.664062 183.457031 296.667969 183.070312 296.582031 182.714844 C 296.546875 182.566406 296.5 182.414062 296.433594 182.273438 C 296.421875 182.230469 296.40625 182.191406 296.390625 182.148438 C 296.199219 181.628906 295.820312 181.210938 295.328125 180.960938 C 294.867188 180.730469 294.332031 180.652344 293.820312 180.703125 C 293.246094 180.753906 292.699219 180.949219 292.183594 181.195312 C 291.703125 181.421875 291.246094 181.691406 290.8125 182 C 289.964844 182.601562 289.210938 183.335938 288.542969 184.128906 C 288.210938 184.523438 287.894531 184.933594 287.597656 185.355469 C 287.65625 185.144531 287.714844 184.933594 287.773438 184.722656 C 288 183.902344 288.230469 183.085938 288.460938 182.265625 C 288.570312 181.871094 288.683594 181.472656 288.792969 181.074219 C 288.894531 180.699219 288.988281 180.320312 289.042969 179.9375 C 289.082031 179.6875 289.105469 179.429688 289.109375 179.175781 C 289.132812 179.007812 289.148438 178.839844 289.148438 178.667969 C 289.148438 178.425781 289.113281 178.191406 289.058594 177.957031 C 289.011719 177.746094 288.9375 177.542969 288.839844 177.355469 C 288.734375 177.148438 288.613281 176.953125 288.464844 176.773438 C 288.316406 176.597656 288.148438 176.433594 287.964844 176.296875 C 287.59375 176.015625 287.164062 175.816406 286.710938 175.726562 C 286.578125 175.699219 286.441406 175.6875 286.304688 175.683594 C 286.191406 175.675781 286.074219 175.679688 285.960938 175.695312 C 285.824219 175.714844 285.683594 175.746094 285.554688 175.792969 C 285.550781 175.796875 285.542969 175.800781 285.535156 175.800781 C 285.433594 175.824219 285.332031 175.851562 285.234375 175.890625 C 284.871094 176.03125 284.554688 176.28125 284.304688 176.578125 C 283.730469 177.257812 283.550781 178.164062 283.503906 179.03125 C 283.453125 179.96875 283.492188 180.925781 283.675781 181.847656 C 283.855469 182.746094 284.175781 183.605469 284.527344 184.449219 C 284.742188 184.957031 284.960938 185.464844 285.183594 185.972656 C 285.179688 185.980469 285.175781 185.992188 285.171875 186 C 285.105469 185.910156 285.035156 185.820312 284.96875 185.730469 C 284.414062 185 283.804688 184.320312 283.148438 183.683594 C 282.496094 183.054688 281.796875 182.472656 281.050781 181.953125 C 280.316406 181.441406 279.539062 180.964844 278.65625 180.757812 C 278.25 180.660156 277.816406 180.632812 277.40625 180.71875 C 276.988281 180.8125 276.605469 181.015625 276.304688 181.320312 C 275.765625 181.871094 275.578125 182.691406 275.648438 183.441406 C 275.683594 183.816406 275.789062 184.199219 275.960938 184.535156 C 276.171875 184.9375 276.449219 185.292969 276.773438 185.609375 C 277.414062 186.230469 278.214844 186.664062 279.023438 187.019531 C 279.980469 187.441406 280.980469 187.769531 282 188.007812 C 282.0625 188.023438 282.128906 188.039062 282.195312 188.050781 C 281.511719 188.070312 280.824219 188.101562 280.148438 188.191406 C 279.300781 188.304688 278.457031 188.515625 277.699219 188.914062 C 277.015625 189.273438 276.390625 189.773438 275.957031 190.421875 C 275.5 191.105469 275.171875 192.039062 275.625 192.808594 Z M 275.625 192.808594 " fill-opacity="1" fill-rule="nonzero"/></g></g></g><g clip-path="url(#15eb0d2f00)"><g clip-path="url(#2ead73dbd8)"><g clip-path="url(#c87ad9258a)"><path fill="#fde8e3" d="M 288.539062 188 C 288.558594 188.308594 288.519531 188.613281 288.417969 188.910156 C 288.316406 189.207031 288.164062 189.472656 287.957031 189.707031 C 287.75 189.941406 287.503906 190.128906 287.226562 190.265625 C 286.945312 190.402344 286.648438 190.480469 286.335938 190.503906 C 286.023438 190.523438 285.71875 190.480469 285.425781 190.382812 C 285.128906 190.28125 284.863281 190.125 284.628906 189.917969 C 284.394531 189.714844 284.207031 189.46875 284.070312 189.1875 C 283.929688 188.910156 283.851562 188.613281 283.832031 188.300781 C 283.8125 187.988281 283.851562 187.683594 283.953125 187.386719 C 284.054688 187.09375 284.207031 186.828125 284.414062 186.59375 C 284.621094 186.355469 284.863281 186.171875 285.144531 186.03125 C 285.425781 185.894531 285.722656 185.816406 286.035156 185.796875 C 286.347656 185.777344 286.648438 185.816406 286.945312 185.917969 C 287.242188 186.019531 287.507812 186.171875 287.742188 186.378906 C 287.976562 186.585938 288.164062 186.828125 288.300781 187.109375 C 288.4375 187.390625 288.519531 187.6875 288.539062 188 Z M 288.539062 188 " fill-opacity="1" fill-rule="nonzero"/></g></g></g><g clip-path="url(#4a014a1e65)"><g clip-path="url(#408395a6d5)"><g clip-path="url(#6cde63e200)"><path fill="#03676b" d="M 78.476562 192.808594 C 78.839844 193.425781 79.570312 193.722656 80.25 193.816406 C 80.632812 193.871094 81.03125 193.859375 81.414062 193.816406 C 81.824219 193.773438 82.222656 193.683594 82.613281 193.5625 C 83.40625 193.316406 84.152344 192.933594 84.851562 192.492188 C 85.554688 192.046875 86.214844 191.539062 86.847656 191 C 86.886719 190.964844 86.929688 190.929688 86.972656 190.894531 C 86.753906 191.429688 86.570312 191.976562 86.421875 192.535156 C 86.253906 193.183594 86.132812 193.84375 86.066406 194.511719 C 86.03125 194.863281 86.011719 195.222656 86.003906 195.578125 C 86 195.925781 86 196.277344 86.035156 196.625 C 86.054688 196.835938 86.09375 197.046875 86.164062 197.246094 C 86.207031 197.371094 86.261719 197.492188 86.332031 197.605469 C 86.339844 197.636719 86.347656 197.664062 86.359375 197.695312 C 86.382812 197.75 86.410156 197.804688 86.441406 197.859375 C 86.511719 197.992188 86.613281 198.101562 86.707031 198.214844 C 86.933594 198.46875 87.167969 198.71875 87.445312 198.917969 C 87.582031 199.011719 87.722656 199.097656 87.875 199.164062 C 87.964844 199.203125 88.054688 199.234375 88.144531 199.261719 C 88.210938 199.28125 88.28125 199.296875 88.347656 199.308594 C 88.460938 199.324219 88.574219 199.332031 88.6875 199.328125 C 88.710938 199.328125 88.730469 199.328125 88.753906 199.328125 C 88.929688 199.328125 89.101562 199.300781 89.269531 199.261719 C 89.398438 199.230469 89.523438 199.191406 89.644531 199.136719 C 89.644531 199.136719 89.648438 199.136719 89.648438 199.132812 C 90.003906 199.03125 90.339844 198.847656 90.617188 198.609375 C 90.929688 198.339844 91.175781 198 91.367188 197.632812 C 91.734375 196.917969 91.871094 196.09375 91.898438 195.292969 C 91.925781 194.503906 91.835938 193.710938 91.648438 192.941406 C 91.460938 192.164062 91.179688 191.410156 90.835938 190.6875 C 90.746094 190.5 90.652344 190.316406 90.554688 190.132812 C 91.078125 190.613281 91.601562 191.097656 92.128906 191.578125 C 92.796875 192.191406 93.460938 192.820312 94.214844 193.332031 C 94.9375 193.824219 95.738281 194.210938 96.605469 194.347656 C 97.023438 194.414062 97.453125 194.425781 97.871094 194.355469 C 98.28125 194.285156 98.667969 194.148438 99.03125 193.9375 C 99.589844 193.617188 100.066406 193.101562 100.296875 192.492188 C 100.417969 192.257812 100.496094 192.003906 100.507812 191.738281 C 100.523438 191.324219 100.394531 190.933594 100.183594 190.582031 C 99.976562 190.242188 99.691406 189.953125 99.390625 189.699219 C 99.046875 189.417969 98.671875 189.179688 98.285156 188.964844 C 97.496094 188.519531 96.636719 188.214844 95.761719 187.996094 C 95.113281 187.839844 94.453125 187.734375 93.789062 187.671875 C 94.039062 187.617188 94.289062 187.554688 94.535156 187.484375 C 95.363281 187.253906 96.167969 186.945312 96.921875 186.527344 C 97.664062 186.117188 98.390625 185.621094 98.902344 184.933594 C 99.148438 184.597656 99.339844 184.21875 99.433594 183.8125 C 99.511719 183.457031 99.515625 183.070312 99.433594 182.714844 C 99.398438 182.566406 99.347656 182.414062 99.28125 182.273438 C 99.269531 182.230469 99.257812 182.191406 99.242188 182.148438 C 99.046875 181.628906 98.667969 181.210938 98.175781 180.960938 C 97.714844 180.730469 97.179688 180.652344 96.667969 180.703125 C 96.097656 180.753906 95.546875 180.949219 95.03125 181.195312 C 94.550781 181.421875 94.09375 181.691406 93.660156 182 C 92.8125 182.601562 92.0625 183.335938 91.390625 184.128906 C 91.058594 184.523438 90.746094 184.933594 90.445312 185.355469 C 90.503906 185.144531 90.5625 184.933594 90.621094 184.722656 C 90.851562 183.902344 91.078125 183.085938 91.308594 182.265625 C 91.421875 181.871094 91.535156 181.472656 91.640625 181.074219 C 91.742188 180.699219 91.835938 180.320312 91.894531 179.9375 C 91.929688 179.6875 91.953125 179.429688 91.957031 179.175781 C 91.984375 179.007812 91.996094 178.839844 91.996094 178.667969 C 91.996094 178.425781 91.960938 178.191406 91.90625 177.957031 C 91.859375 177.746094 91.785156 177.542969 91.6875 177.355469 C 91.582031 177.148438 91.464844 176.953125 91.3125 176.773438 C 91.164062 176.597656 91 176.433594 90.8125 176.296875 C 90.441406 176.015625 90.015625 175.816406 89.558594 175.726562 C 89.425781 175.699219 89.292969 175.6875 89.15625 175.683594 C 89.039062 175.675781 88.925781 175.679688 88.808594 175.695312 C 88.671875 175.714844 88.535156 175.746094 88.40625 175.792969 C 88.398438 175.796875 88.390625 175.800781 88.386719 175.800781 C 88.28125 175.824219 88.183594 175.851562 88.085938 175.890625 C 87.71875 176.03125 87.40625 176.28125 87.152344 176.578125 C 86.582031 177.257812 86.398438 178.164062 86.351562 179.03125 C 86.300781 179.96875 86.339844 180.925781 86.523438 181.847656 C 86.703125 182.746094 87.023438 183.605469 87.375 184.449219 C 87.589844 184.957031 87.8125 185.464844 88.03125 185.972656 C 88.027344 185.980469 88.023438 185.992188 88.019531 186 C 87.953125 185.910156 87.886719 185.820312 87.816406 185.730469 C 87.265625 185 86.65625 184.320312 86 183.683594 C 85.34375 183.054688 84.644531 182.472656 83.902344 181.953125 C 83.167969 181.441406 82.386719 180.964844 81.503906 180.757812 C 81.097656 180.660156 80.664062 180.632812 80.253906 180.71875 C 79.835938 180.8125 79.457031 181.015625 79.15625 181.320312 C 78.613281 181.871094 78.425781 182.691406 78.496094 183.441406 C 78.53125 183.816406 78.636719 184.199219 78.8125 184.535156 C 79.019531 184.9375 79.300781 185.292969 79.625 185.609375 C 80.261719 186.230469 81.066406 186.664062 81.871094 187.019531 C 82.832031 187.441406 83.828125 187.769531 84.847656 188.007812 C 84.914062 188.023438 84.976562 188.039062 85.042969 188.050781 C 84.359375 188.070312 83.675781 188.101562 82.996094 188.191406 C 82.152344 188.304688 81.308594 188.515625 80.550781 188.914062 C 79.867188 189.273438 79.238281 189.773438 78.804688 190.421875 C 78.347656 191.105469 78.023438 192.039062 78.476562 192.808594 Z M 78.476562 192.808594 " fill-opacity="1" fill-rule="nonzero"/></g></g></g><g clip-path="url(#af9bd7a54b)"><g clip-path="url(#240205abe7)"><g clip-path="url(#988c8d10e3)"><path fill="#fde8e3" d="M 91.386719 188 C 91.40625 188.308594 91.367188 188.613281 91.265625 188.910156 C 91.164062 189.207031 91.011719 189.472656 90.804688 189.707031 C 90.597656 189.941406 90.355469 190.128906 90.074219 190.265625 C 89.792969 190.402344 89.496094 190.480469 89.183594 190.503906 C 88.871094 190.523438 88.570312 190.480469 88.273438 190.382812 C 87.976562 190.28125 87.710938 190.125 87.476562 189.917969 C 87.242188 189.714844 87.054688 189.46875 86.917969 189.1875 C 86.78125 188.910156 86.699219 188.613281 86.679688 188.300781 C 86.660156 187.988281 86.703125 187.683594 86.800781 187.386719 C 86.902344 187.09375 87.058594 186.828125 87.261719 186.59375 C 87.46875 186.355469 87.714844 186.171875 87.992188 186.03125 C 88.273438 185.894531 88.570312 185.816406 88.882812 185.796875 C 89.195312 185.777344 89.5 185.816406 89.796875 185.917969 C 90.089844 186.019531 90.355469 186.171875 90.589844 186.378906 C 90.824219 186.585938 91.011719 186.828125 91.148438 187.109375 C 91.289062 187.390625 91.367188 187.6875 91.386719 188 Z M 91.386719 188 " fill-opacity="1" fill-rule="nonzero"/></g></g></g></svg>